<?xml version="1.0" encoding="utf-8"?>
<svg width="1112" height="834" viewBox="-556 -417 1112 834" xmlns="http://www.w3.org/2000/svg">
  <style>
svg { background-color:#DAA7F9; }

#looom { --version:2; }

#t0 {
--visible:1; --timeOffset:-1.333333; --speed:12; --bookmarkIndex:-1; --latched:0; --playMode:0; --masked:0; --blendMode:0; 
stroke:#FFDB77; stroke-opacity:1; fill-opacity:0; stroke-width:10; stroke-linecap:round; stroke-linejoin:round;
}
@keyframes t0 { 0% { opacity: 1; } 100% { opacity: 0; } }
#t0 .frame { animation:t0 0.08333334s calc(var(--index) * 0.08333334s) steps(1) infinite; }

#t1 {
--visible:1; --timeOffset:-2; --speed:12; --bookmarkIndex:-1; --latched:0; --playMode:0; --masked:0; --blendMode:0; 
fill:#77FFE8; stroke-opacity:0; fill-opacity:1; stroke-width:10; stroke-linecap:round; stroke-linejoin:round;
}
@keyframes t1 { 0% { opacity: 1; } 8.333333% { opacity: 0; } }
#t1 .frame { animation:t1 1s calc(var(--index) * 0.08333334s) steps(1) infinite; }

</style>
  <g id="w0" transform="translate(310.75 23.00)" class="weave">
    <g id="t0" transform="translate(-312.75 -7.00)" class="thread">
      <g id="f0" style="--index:0; opacity:1;" class="frame">
        <path d="M-539.01,298.50L-535.01,293.50L-531.51,292.50L-510.01,294.50L-481.00,294.50L-433.00,287.50L-343.00,281.00L-218.00,280.00L-175.00,281.50L-21.00,274.50L8.00,275.50L56.00,275.50L138.50,274.50L196.00,272.50L224.50,273.00L271.00,276.00L293.50,278.50L338.00,286.50L410.00,291.00L510.01,291.50L537.51,289.50" />
      </g>
    </g>
    <g id="t1" transform="translate(-312.75 -7.00)" class="thread">
      <g id="f0" style="--index:0; opacity:1;" class="frame">
        <path d="M-331.00,-3.50L-337.00,-4.00L-340.50,-2.50L-345.00,5.50L-346.00,9.00L-346.50,23.00L-344.50,36.50L-341.50,46.50L-339.50,51.50L-331.50,63.00L-325.50,68.50L-318.00,71.50L-310.50,72.00L-307.00,70.50L-306.00,69.00L-305.50,65.50L-305.50,59.00L-307.50,43.50L-310.50,34.00L-316.00,21.00L-318.00,18.00L-327.50,6.50L-331.00,3.50" />
        <path d="M306.00,-89.00L324.00,-87.00L329.50,-85.50L340.00,-78.50L356.50,-63.50L361.00,-56.50L365.50,-42.50L365.50,-38.50L362.50,-35.00L356.00,-30.00L343.50,-28.00L329.50,-28.50L323.50,-29.50L316.00,-31.50L304.00,-40.00L298.00,-47.50L294.00,-58.50L293.50,-73.00L298.00,-87.50" />
      </g>
      <g id="f1" style="--index:1; opacity:0;" class="frame">
        <path d="M-361.50,-94.00L-367.00,-91.00L-370.00,-87.00L-372.00,-75.50L-372.00,-59.00L-370.00,-49.00L-367.00,-41.50L-361.50,-34.00L-358.50,-30.50L-351.50,-26.50L-342.00,-19.50L-340.00,-19.00L-336.50,-19.50L-332.50,-22.50L-329.00,-28.00L-327.50,-34.00L-327.50,-42.00L-331.00,-58.50L-337.50,-73.00L-345.00,-78.50L-350.50,-84.50L-354.00,-87.00L-356.00,-87.50" />
        <path d="M244.50,-117.50L239.00,-119.50L234.00,-115.50L231.00,-112.00L225.50,-105.00L223.00,-100.50L221.50,-96.00L220.50,-89.00L220.50,-82.50L227.00,-70.50L231.50,-66.50L237.00,-63.50L244.00,-62.00L253.50,-62.50L262.00,-64.50L274.50,-70.50L279.00,-76.00L283.00,-83.00L286.50,-90.50L289.00,-99.00L289.00,-104.50L286.50,-112.00L280.50,-117.50L274.50,-120.50L265.00,-122.00L260.00,-121.50L246.00,-117.50" />
      </g>
      <g id="f2" style="--index:2; opacity:0;" class="frame">
        <path d="M-400.00,-151.50L-406.00,-150.00L-408.00,-148.00L-409.50,-145.00L-411.00,-137.00L-410.50,-128.50L-409.50,-124.50L-407.00,-117.50L-400.00,-105.50L-393.00,-98.50L-387.00,-96.00L-377.00,-94.50L-370.00,-94.50L-365.50,-96.00L-363.00,-98.00L-359.00,-103.50L-357.50,-106.50L-356.50,-113.00L-357.00,-125.50L-360.00,-136.00L-366.50,-145.00L-371.50,-148.50L-385.00,-152.00L-394.50,-152.50L-396.00,-154.00" />
        <path d="M138.55,-102.61L134.50,-101.50L130.00,-96.50L121.50,-82.50L119.50,-76.00L119.50,-73.00L121.50,-66.50L128.00,-61.00L132.50,-59.50L143.50,-58.00L151.50,-58.00L160.00,-61.00L175.50,-69.50L181.50,-74.00L185.00,-77.00L192.00,-86.50L197.50,-97.50L198.00,-100.00L198.00,-104.00L193.00,-110.00L189.00,-112.50L182.50,-115.00L163.00,-115.00L156.50,-114.00L152.00,-111.00L140.50,-105.50L138.55,-102.61" />
        <path d="M140.00,-103.00L138.55,-102.61L137.50,-100.50" />
      </g>
      <g id="f3" style="--index:3; opacity:0;" class="frame">
        <path d="M-424.00,-229.50L-427.50,-234.00L-433.00,-237.00L-436.50,-236.50L-440.50,-234.50L-446.50,-230.00L-452.50,-222.50L-458.00,-211.50L-459.00,-207.50L-459.00,-197.50L-457.50,-191.00L-453.00,-181.50L-448.00,-174.50L-444.00,-171.00L-436.50,-167.50L-424.00,-164.00L-416.00,-163.50L-409.00,-163.50L-406.00,-164.50L-402.00,-167.50L-396.00,-189.50L-397.50,-206.00L-401.50,-214.50L-404.50,-219.00L-421.00,-232.00" />
        <path d="M26.50,3.00L30.50,-2.00L33.50,-9.50L38.00,-17.50L49.50,-34.00L70.00,-57.00L79.00,-63.50L88.00,-68.50L95.00,-70.00L100.50,-69.00L109.00,-65.00L111.00,-63.50L113.00,-60.00L113.50,-55.00L108.00,-43.50L84.00,-18.50L75.50,-11.00L68.50,-6.00L59.50,-1.00L48.50,2.50L37.50,7.50" />
      </g>
      <g id="f4" style="--index:4; opacity:0;" class="frame">
        <path d="M-463.00,-275.50L-468.50,-276.50L-476.50,-272.50L-485.50,-261.00L-495.00,-244.00L-495.00,-234.50L-492.00,-226.50L-488.50,-222.00L-479.00,-215.50L-472.50,-213.50L-463.00,-214.50L-450.00,-221.00L-442.00,-227.50L-439.50,-232.00L-439.00,-239.00L-441.00,-253.50L-445.00,-263.00L-450.00,-270.00L-453.50,-273.00L-461.00,-277.00L-466.00,-277.00" />
        <path d="M-34.00,105.50L-33.00,96.00L-30.00,85.50L-24.00,69.50L-12.50,47.50L-7.50,40.00L-0.50,30.50L8.50,23.50L21.50,17.50L27.00,18.00L28.00,19.50L29.00,25.00L28.50,42.00L18.00,64.50L3.50,84.50L-5.00,94.50L-8.50,98.00L-19.00,104.00L-26.50,110.00" />
      </g>
      <g id="f5" style="--index:5; opacity:0;" class="frame">
        <path d="M-68.50,158.50L-68.50,153.00L-66.50,143.00L-60.50,132.50L-56.50,128.00L-48.00,120.50L-44.00,119.00L-40.50,118.50L-35.50,121.50L-36.00,128.00L-39.00,133.50L-50.50,147.00L-55.00,153.00L-56.00,155.50L-64.00,162.00" />
      </g>
      <g id="f6" style="--index:6; opacity:0;" class="frame">
        <path d="M-94.00,225.00L-95.50,219.00L-95.50,213.00L-90.00,195.50L-87.50,192.50L-84.00,186.00L-76.00,177.00L-70.50,176.50L-68.00,177.50L-62.00,181.50L-61.00,183.50L-61.50,190.00L-70.00,203.50L-73.50,210.50L-77.50,214.50L-83.50,224.50L-87.50,228.50" />
      </g>
      <g id="f7" style="--index:7; opacity:0;" class="frame">
        <path d="M-106.50,238.00L-111.50,237.50L-114.00,239.50L-117.50,249.00L-117.00,258.50L-109.50,266.00L-103.50,269.00L-100.00,269.50L-94.00,269.50L-91.50,268.50L-87.50,266.00L-86.00,264.00L-84.50,261.00L-83.50,254.50L-83.50,250.50L-85.00,244.50L-90.50,238.50L-95.00,235.50L-104.00,233.50L-106.50,234.00" />
      </g>
      <g id="f8" style="--index:8; opacity:0;" class="frame">
        <path d="M-157.50,249.00L-165.50,248.00L-174.50,250.00L-188.50,257.00L-191.00,259.50L-192.00,267.50L-191.50,269.00L-188.50,272.00L-185.50,274.00L-180.50,275.00L-129.00,274.50L-118.50,271.50L-114.00,269.00L-111.00,267.00L-108.50,262.50L-108.50,259.00L-110.00,255.50L-113.00,252.50L-120.50,249.00L-123.50,248.00L-130.00,248.00L-140.00,246.50L-149.50,246.50L-157.50,245.00" />
      </g>
      <g id="f9" style="--index:9; opacity:0;" class="frame">
        <path d="M-203.00,232.00L-208.50,230.00L-214.50,232.50L-216.50,234.50L-219.00,240.50L-220.50,249.50L-220.50,256.00L-216.50,265.00L-211.00,273.00L-200.00,279.00L-195.00,280.00L-187.00,279.50L-181.50,276.50L-175.50,270.50L-172.00,263.50L-171.00,258.00L-171.00,252.50L-172.50,246.00L-180.50,230.00L-187.00,225.00L-197.50,223.50L-203.00,223.50L-211.50,226.00L-214.00,228.00" />
      </g>
      <g id="f10" style="--index:10; opacity:0;" class="frame">
        <path d="M-261.00,177.50L-266.50,176.50L-267.00,178.00L-267.00,186.50L-263.00,201.00L-249.00,229.00L-235.50,248.50L-230.00,255.00L-226.00,258.00L-222.50,259.50L-219.00,259.50L-215.00,256.00L-214.50,248.50L-219.50,234.00L-234.00,207.50L-244.00,192.50L-246.50,189.50L-263.50,175.00" />
      </g>
      <g id="f11" style="--index:11; opacity:0;" class="frame">
        <path d="M-308.00,88.50L-313.00,89.50L-313.00,100.00L-312.50,104.00L-303.50,134.00L-297.50,143.50L-284.00,157.50L-279.00,160.00L-273.00,161.50L-268.50,161.50L-266.50,156.50L-266.50,149.00L-270.50,138.00L-277.50,122.50L-288.00,102.00L-296.00,92.00L-303.50,85.00" />
      </g>
    </g>
  </g>
</svg>