<?xml version="1.0" encoding="utf-8"?>
<svg width="301" height="301" viewBox="-120 -140 301 301" xmlns="http://www.w3.org/2000/svg">
  <style>
svg { background-color:#52584F; }

#looom { --version:2; }

#t0 {
--visible:1; --timeOffset:19.53334; --speed:10; --bookmarkIndex:-1; --latched:0; --playMode:0; --masked:0; --blendMode:0;
stroke:#FFFFFF; stroke-opacity:1; fill-opacity:0; stroke-width:10; stroke-linecap:round; stroke-linejoin:round;
}
@keyframes t0 { 0% { opacity: 1; } 100% { opacity: 0; } }
#t0 .frame { animation:t0 0.1s calc(var(--index) * 0.1s) steps(1) infinite; }

#t1 {
--visible:1; --timeOffset:15.99997; --speed:12; --bookmarkIndex:-1; --latched:0; --playMode:0; --masked:0; --blendMode:0;
stroke:#F9FF64; stroke-opacity:1; fill-opacity:0; stroke-width:10; stroke-linecap:round; stroke-linejoin:round;
}
@keyframes t1 { 0% { opacity: 1; } 4.166667% { opacity: 0; } }
#t1 .frame { animation:t1 2s calc(var(--index) * 0.08333334s) steps(1) infinite; }

#t2 {
--visible:1; --timeOffset:17.99999; --speed:12; --bookmarkIndex:-1; --latched:0; --playMode:0; --masked:0; --blendMode:0;
stroke:#64FFD4; stroke-opacity:1; fill-opacity:0; stroke-width:10; stroke-linecap:round; stroke-linejoin:round;
}
@keyframes t2 { 0% { opacity: 1; } 4.166667% { opacity: 0; } }
#t2 .frame { animation:t2 2s calc(var(--index) * 0.08333334s) steps(1) infinite; }

#t3 {
--visible:1; --timeOffset:15.99997; --speed:12; --bookmarkIndex:-1; --latched:0; --playMode:0; --masked:0; --blendMode:0;
stroke:#C164FF; stroke-opacity:1; fill-opacity:0; stroke-width:10; stroke-linecap:round; stroke-linejoin:round;
}
@keyframes t3 { 0% { opacity: 1; } 4.166667% { opacity: 0; } }
#t3 .frame { animation:t3 2s calc(var(--index) * 0.08333334s) steps(1) infinite; }

#t4 {
--visible:1; --timeOffset:17.99999; --speed:12; --bookmarkIndex:-1; --latched:0; --playMode:0; --masked:0; --blendMode:0;
stroke:#FF64B7; stroke-opacity:1; fill-opacity:0; stroke-width:10; stroke-linecap:round; stroke-linejoin:round;
}
@keyframes t4 { 0% { opacity: 1; } 4.166667% { opacity: 0; } }
#t4 .frame { animation:t4 2s calc(var(--index) * 0.08333334s) steps(1) infinite; }

</style>
  <g id="w0" transform="translate(75.75 24.25) scale(0.45 0.45) rotate(-358.46)" class="weave">
    <g id="t0" transform="translate(-127.94 -96.90)" class="thread">
      <g id="f0" style="--index:0; opacity:1;" class="frame">
        <path d="M-234.50,-229.50L-232.00,-218.00L-232.00,-205.00L-235.00,-171.50L-240.00,-138.50L-242.00,-113.50L-245.50,-43.00L-246.00,-1.00L-243.50,68.50L-243.50,227.50L-233.50,341.00" />
        <path d="M300.50,-209.00L301.50,-203.00L301.50,-148.50L300.50,-130.50L300.50,-13.50L299.00,34.00L299.50,153.50L298.50,187.50L296.50,223.00L292.00,275.50L291.50,299.50L290.50,310.50L288.50,320.00" />
        <path d="M-219.00,354.00L-211.50,352.50L-186.50,355.00L-173.00,355.00L-157.00,353.00L-140.00,352.00L-73.50,350.50L-10.50,346.50L24.00,345.50L61.50,347.00L134.50,354.50L274.50,366.00L313.00,371.50L322.50,373.50" />
        <path d="M-238.50,-231.50L-231.50,-231.00L-219.00,-232.00L-152.50,-239.50L-42.50,-242.50L-17.50,-242.00L16.00,-240.00L63.00,-235.00L113.00,-232.00L159.50,-231.50L200.50,-230.00L291.50,-231.50" />
        <path d="M-226.00,-183.00L-205.50,-184.50L-181.50,-188.00L-159.00,-189.00L-91.50,-186.50L-36.50,-186.50L90.00,-180.00L139.00,-180.00L212.50,-185.00L280.50,-186.50L302.50,-188.00L305.00,-188.00L305.00,-185.50" />
      </g>
    </g>
    <g id="t1" transform="translate(260.72 55.39)" class="thread">
      <g id="f0" style="--index:0; opacity:1;" class="frame">
        <path d="M-557.62,-285.56L-552.45,-283.88L-541.28,-282.67" />
        <path d="M-393.90,-92.33L-390.46,-91.50L-377.11,-85.59" />
        <path d="M-546.03,-361.21L-544.89,-358.56L-546.20,-357.63L-547.18,-360.73L-546.03,-361.21" />
        <path d="M-546.26,-361.75L-543.62,-361.27L-544.43,-358.13L-545.77,-358.09L-546.24,-358.97L-546.26,-361.75" />
        <path d="M-546.79,-362.97L-546.26,-361.75L-545.45,-363.01L-544.56,-363.03L-543.62,-361.27" />
      </g>
      <g id="f1" style="--index:1; opacity:0;" class="frame">
        <path d="M-541.28,-282.67L-531.40,-281.89L-515.95,-282.43" />
        <path d="M-587.57,-216.22" />
        <path d="M-377.11,-85.59L-368.10,-86.52L-352.26,-92.22" />
        <path d="M-546.27,-360.31L-545.32,-358.10L-546.20,-357.63L-548.96,-360.68L-548.10,-362.04L-547.21,-362.07L-546.27,-360.31" />
        <path d="M-546.91,-361.78L-546.20,-357.63L-547.14,-359.39L-546.91,-361.78" />
        <path d="M-547.22,-362.51L-546.91,-361.78L-545.42,-361.67" />
      </g>
      <g id="f2" style="--index:2; opacity:0;" class="frame">
        <path d="M-515.95,-282.43L-509.94,-282.05L-501.77,-279.54L-490.17,-278.34" />
        <path d="M-587.57,-216.22L-583.76,-222.69L-580.77,-224.85L-577.77,-225.74" />
        <path d="M-588.76,-145.81" />
        <path d="M-352.26,-92.22L-336.42,-98.34L-329.13,-98.83" />
        <path d="M-544.11,-362.85L-542.81,-364.42L-542.33,-363.09L-542.66,-358.62L-543.96,-357.25L-545.31,-357.66L-547.16,-360.28L-547.67,-362.50L-547.71,-363.84L-544.61,-364.81L-544.11,-362.85" />
        <path d="M-545.84,-360.77L-544.11,-362.85L-544.03,-359.92L-545.37,-359.89" />
      </g>
      <g id="f3" style="--index:3; opacity:0;" class="frame">
        <path d="M-490.17,-278.34L-464.87,-282.39" />
        <path d="M-577.77,-225.74L-563.20,-228.85L-560.62,-228.44" />
        <path d="M-588.76,-145.81" />
        <path d="M-329.13,-98.83L-324.83,-97.57L-317.05,-90.76L-313.17,-88.65" />
        <path d="M-546.46,-363.77L-543.57,-359.49L-543.98,-358.14L-545.31,-357.66L-547.62,-360.72L-546.46,-363.77" />
        <path d="M-546.83,-364.31L-546.46,-363.77L-544.16,-364.83L-543.69,-363.95L-543.62,-361.27L-545.34,-358.99L-546.30,-361.20L-545.92,-363.89" />
      </g>
      <g id="f4" style="--index:4; opacity:0;" class="frame">
        <path d="M-464.87,-282.39L-454.14,-282.47L-450.70,-281.64L-448.54,-279.94" />
        <path d="M-560.62,-228.44L-554.14,-223.34L-547.69,-221.24" />
        <path d="M-588.76,-145.81L-581.08,-151.88" />
        <path d="M-313.17,-88.65L-303.70,-84.85L-286.52,-83.70" />
        <path d="M-544.07,-361.26L-542.21,-358.63L-543.07,-357.27L-543.96,-357.25L-545.90,-362.99L-545.51,-365.24L-543.29,-365.74L-542.28,-361.31L-544.07,-361.26" />
        <path d="M-544.07,-361.26L-544.07,-361.26" />
        <path d="M-544.99,-362.57L-544.07,-361.26L-545.03,-363.91L-543.72,-364.84" />
      </g>
      <g id="f5" style="--index:5; opacity:0;" class="frame">
        <path d="M-448.54,-279.94L-443.78,-274.82L-440.33,-272.70L-432.59,-271.47" />
        <path d="M-547.69,-221.24L-542.12,-222.57L-518.16,-233.05" />
        <path d="M-581.08,-151.88L-574.67,-156.22L-569.53,-157.97L-563.96,-158.45" />
        <path d="M-286.52,-83.70L-253.90,-83.94" />
        <path d="M-574.49,96.19" />
        <path d="M-543.60,-360.38L-545.40,-361.22L-545.97,-365.67L-543.74,-365.73L-542.81,-364.42L-542.74,-361.74L-543.60,-360.38" />
        <path d="M-541.52,-366.24L-541.84,-361.32L-543.15,-360.39L-544.04,-360.37L-544.97,-361.68L-545.48,-363.90L-542.81,-364.42L-542.76,-362.63" />
      </g>
      <g id="f6" style="--index:6; opacity:0;" class="frame">
        <path d="M-432.59,-271.47L-404.73,-276.40" />
        <path d="M-518.16,-233.05L-504.02,-237.02L-498.44,-236.64L-495.41,-233.22L-492.79,-228.09" />
        <path d="M-563.96,-158.45L-561.81,-158.03L-556.60,-151.20L-554.02,-150.36" />
        <path d="M-253.90,-83.94L-244.87,-82.72L-232.40,-79.81L-225.95,-77.71L-218.19,-73.91" />
        <path d="M-568.60,23.60" />
        <path d="M-574.49,96.19L-576.24,91.05L-570.73,82.85" />
        <path d="M-544.58,-363.92L-544.66,-366.60L-542.88,-367.09L-543.20,-362.17L-544.08,-361.70L-545.44,-362.56L-545.48,-363.90L-544.58,-363.92" />
        <path d="M-544.58,-363.92L-544.58,-363.92" />
        <path d="M-543.26,-364.40L-542.33,-363.09L-542.25,-359.97L-544.03,-359.92L-544.10,-362.60L-543.26,-364.40" />
        <path d="M-543.26,-364.40L-543.26,-364.40" />
        <path d="M-544.54,-362.14L-544.58,-363.92L-542.40,-365.77L-541.51,-365.79L-541.48,-364.45" />
      </g>
      <g id="f7" style="--index:7; opacity:0;" class="frame">
        <path d="M-404.73,-276.40L-384.15,-279.56L-376.85,-279.19" />
        <path d="M-492.79,-228.09L-489.76,-223.82L-486.73,-221.27L-476.39,-216.20L-470.38,-215.38" />
        <path d="M-554.02,-150.36L-550.59,-149.96L-531.77,-159.55" />
        <path d="M-218.19,-73.91L-206.56,-68.42L-201.40,-67.17L-192.81,-66.80" />
        <path d="M-568.60,23.60" />
        <path d="M-570.73,82.85L-565.62,77.23L-559.22,72.03L-552.38,68.12L-545.53,65.49L-539.09,65.01" />
        <path d="M-543.68,-363.90L-540.64,-366.71L-539.74,-366.28L-539.61,-361.38L-540.46,-360.02L-542.25,-359.97L-543.68,-363.90" />
        <path d="M-544.13,-363.49L-541.54,-366.68L-540.64,-366.71L-539.69,-364.50L-540.07,-361.81L-542.29,-361.75L-542.33,-363.09" />
      </g>
      <g id="f8" style="--index:8; opacity:0;" class="frame">
        <path d="M-376.85,-279.19L-356.20,-273.33" />
        <path d="M-470.38,-215.38L-462.65,-215.01L-435.65,-221.65" />
        <path d="M-531.77,-159.55L-523.64,-163.47L-513.79,-165.69L-503.04,-164.06L-499.59,-161.93" />
        <path d="M-192.81,-66.80L-180.79,-66.89L-166.19,-65.28" />
        <path d="M-568.60,23.60" />
        <path d="M-539.09,65.01L-533.07,66.26L-527.47,69.22L-510.21,81.97" />
        <path d="M-543.28,-365.30L-542.27,-360.86L-544.09,-362.15L-543.28,-365.30" />
        <path d="M-540.99,-363.13L-540.90,-359.56L-542.22,-359.08L-543.61,-360.82L-543.66,-362.61L-540.99,-363.13" />
        <path d="M-543.28,-365.30L-541.51,-365.79L-540.55,-363.14" />
      </g>
      <g id="f9" style="--index:9; opacity:0;" class="frame">
        <path d="M-356.20,-273.33L-347.18,-272.11L-329.15,-272.68" />
        <path d="M-435.65,-221.65L-426.65,-223.01L-402.18,-222.77" />
        <path d="M-499.59,-161.93L-489.23,-154.29L-479.75,-149.64" />
        <path d="M-166.19,-65.28L-153.73,-64.52L-149.02,-65.84L-146.03,-67.58" />
        <path d="M-568.60,23.60L-565.19,19.71L-555.80,13.20L-545.53,8.83" />
        <path d="M-510.21,81.97L-502.87,86.63L-498.57,88.32L-490.41,89.11L-474.54,86.42" />
        <path d="M-541.38,-361.03L-539.54,-358.70L-540.87,-358.67L-541.38,-361.03" />
        <path d="M-542.31,-362.20L-541.38,-361.03L-540.60,-364.92L-538.82,-365.42L-538.28,-361.86L-539.13,-360.05L-540.46,-360.02L-540.93,-360.90L-540.10,-363.15" />
      </g>
      <g id="f10" style="--index:10; opacity:0;" class="frame">
        <path d="M-329.15,-272.68L-319.71,-273.18L-302.95,-271.16" />
        <path d="M-402.18,-222.77L-375.98,-220.82" />
        <path d="M-479.75,-149.64L-468.14,-146.29L-453.98,-146.82L-447.12,-148.16" />
        <path d="M-146.03,-67.58L-141.76,-71.05" />
        <path d="M-545.53,8.83L-539.95,8.36L-519.30,13.78" />
        <path d="M-474.54,86.42L-447.98,79.78L-434.67,80.11" />
        <path d="M-541.10,-367.14L-540.55,-363.14L-542.75,-362.19L-543.27,-364.85L-541.10,-367.14" />
        <path d="M-541.10,-367.14L-541.10,-367.14" />
        <path d="M-544.56,-363.03L-542.44,-367.10L-540.21,-367.16L-540.60,-364.92" />
      </g>
      <g id="f11" style="--index:11; opacity:0;" class="frame">
        <path d="M-302.95,-271.16L-282.78,-271.74L-271.64,-273.97" />
        <path d="M-375.98,-220.82L-364.40,-221.76L-351.97,-224.86L-345.96,-225.33" />
        <path d="M-447.12,-148.16L-424.40,-151.77L-408.55,-156.61" />
        <path d="M-519.30,13.78L-513.71,15.03L-502.52,20.09L-495.64,20.90L-490.50,20.00" />
        <path d="M-434.67,80.11L-428.65,81.78L-404.08,94.47" />
        <path d="M-538.96,-359.90L-536.99,-363.68L-536.10,-363.70L-536.46,-360.57L-537.33,-359.66L-538.96,-359.90" />
        <path d="M-539.11,-359.61L-539.25,-364.51L-537.92,-364.99L-537.85,-362.32" />
      </g>
      <g id="f12" style="--index:12; opacity:0;" class="frame">
        <path d="M-271.64,-273.97L-251.50,-279.27L-247.64,-279.30" />
        <path d="M-345.96,-225.33L-335.23,-224.99L-322.32,-220.36" />
        <path d="M-408.55,-156.61L-400.41,-159.25L-390.12,-161.04L-380.66,-158.97" />
        <path d="M-490.50,20.00L-476.38,13.46L-452.87,0.83" />
        <path d="M-404.08,94.47L-389.45,99.52L-381.71,100.75L-371.42,99.81L-364.14,97.61" />
        <path d="M-543.62,-361.27L-543.62,-361.27" />
        <path d="M-543.63,-361.72L-543.63,-361.72" />
        <path d="M-543.63,-361.72L-543.63,-361.72" />
        <path d="M-542.39,-365.32L-542.25,-359.97L-543.08,-357.72L-544.89,-358.56L-544.99,-362.57L-544.56,-363.03L-543.63,-361.72L-542.78,-363.08" />
      </g>
      <g id="f13" style="--index:13; opacity:0;" class="frame">
        <path d="M-247.64,-279.30L-242.05,-278.06L-234.72,-273.82L-230.85,-272.56" />
        <path d="M-322.32,-220.36L-310.71,-217.44L-287.09,-216.76" />
        <path d="M-380.66,-158.97L-366.90,-154.78L-360.00,-151.40" />
        <path d="M-452.87,0.83L-446.87,-1.36L-442.15,-1.82L-436.98,1.14L-434.38,4.13" />
        <path d="M-364.14,97.61L-354.72,94.10L-344.44,91.45L-335.43,90.95L-317.81,92.97" />
        <path d="M-536.10,-363.66L-538.32,-363.20L-539.28,-365.85L-536.59,-365.48L-536.10,-363.66" />
        <path d="M-536.06,-362.37L-535.98,-359.25L-536.86,-358.78L-537.85,-362.32L-536.98,-363.23L-536.06,-362.37" />
        <path d="M-536.06,-362.37L-536.06,-362.37" />
        <path d="M-535.58,-361.04L-535.58,-361.04" />
        <path d="M-533.44,-364.22L-536.10,-363.66L-535.58,-361.04L-536.09,-363.26" />
      </g>
      <g id="f14" style="--index:14; opacity:0;" class="frame">
        <path d="M-230.85,-272.56L-225.26,-271.74L-211.53,-271.85" />
        <path d="M-287.09,-216.76L-272.93,-217.30L-249.35,-220.91" />
        <path d="M-360.00,-151.40L-355.70,-149.71L-352.26,-149.31L-334.67,-150.73" />
        <path d="M-582.59,-67.73" />
        <path d="M-434.38,4.13L-426.58,14.80L-423.12,17.35L-418.82,18.61" />
        <path d="M-317.81,92.97L-282.96,103.87" />
        <path d="M-540.93,-360.75L-539.96,-357.80L-540.93,-360.75" />
        <path d="M-541.42,-362.22L-540.93,-360.75L-540.57,-364.03L-537.46,-364.56L-536.06,-362.37L-536.43,-359.23L-539.07,-357.82L-539.58,-360.49L-539.63,-362.27L-537.86,-362.76L-537.34,-360.10" />
      </g>
      <g id="f15" style="--index:15; opacity:0;" class="frame">
        <path d="M-249.35,-220.91L-245.05,-220.51L-240.74,-218.40L-229.52,-210.33" />
        <path d="M-334.67,-150.73L-318.79,-150.85L-311.48,-149.19" />
        <path d="M-582.59,-67.73L-583.06,-73.74" />
        <path d="M-418.82,18.61L-413.67,19.00L-407.24,17.23L-379.41,7.58" />
        <path d="M-282.96,103.87L-274.80,104.23L-264.94,103.30L-234.50,97.49" />
        <path d="M-533.14,-363.41L-530.66,-360.73L-530.63,-359.39L-531.94,-358.46L-532.83,-358.44L-534.22,-360.19L-535.71,-365.95L-534.41,-367.32L-533.14,-363.41" />
        <path d="M-533.88,-364.21L-532.92,-361.56L-534.26,-361.52L-535.21,-363.73L-534.80,-365.08L-533.88,-364.21" />
        <path d="M-533.88,-364.21L-533.87,-363.76" />
      </g>
      <g id="f16" style="--index:16; opacity:0;" class="frame">
        <path d="M-229.52,-210.33L-215.31,-203.57L-201.98,-200.66" />
        <path d="M-311.48,-149.19L-299.83,-140.69L-295.09,-139.44" />
        <path d="M-583.06,-73.74L-573.71,-85.83L-565.17,-91.47" />
        <path d="M-379.41,7.58L-363.14,2.73L-352.42,0.94L-346.84,0.89L-339.51,4.27" />
        <path d="M-234.50,97.49L-219.05,97.37L-212.16,99.90L-200.07,109.68" />
        <path d="M-531.05,-358.49L-531.94,-358.46L-532.88,-360.22L-532.97,-363.34L-530.78,-365.19L-529.87,-364.32L-529.27,-358.53L-531.05,-358.49" />
        <path d="M-530.72,-362.96L-531.05,-358.49L-532.95,-362.90L-532.12,-365.15L-531.23,-365.17L-531.17,-362.94" />
      </g>
      <g id="f17" style="--index:17; opacity:0;" class="frame">
        <path d="M-201.98,-200.66L-180.08,-200.40L-171.50,-200.89L-162.93,-202.67" />
        <path d="M-295.09,-139.44L-283.93,-139.52L-280.51,-140.83L-269.79,-142.63" />
        <path d="M-565.17,-91.47L-561.74,-92.79L-559.17,-92.80L-554.43,-89.84L-551.83,-86.85" />
        <path d="M-339.51,4.27L-327.83,16.20L-317.05,22.99" />
        <path d="M-200.07,109.68L-194.03,113.07L-188.01,115.17L-178.99,115.96L-172.98,115.49L-164.84,113.28" />
        <path d="M-540.97,-362.23L-540.10,-363.15L-539.61,-361.38L-540.04,-360.92L-540.97,-362.23" />
        <path d="M-540.97,-362.23L-540.97,-362.23" />
        <path d="M-541.86,-362.21L-541.86,-362.21" />
        <path d="M-541.90,-363.55L-537.94,-365.89L-537.43,-363.22L-539.07,-357.82L-540.36,-356.00L-541.26,-356.43L-541.78,-359.09L-540.97,-362.23L-541.86,-362.21L-541.84,-361.32" />
      </g>
      <g id="f18" style="--index:18; opacity:0;" class="frame">
        <path d="M-162.93,-202.67L-155.22,-204.45L-145.80,-208.38" />
        <path d="M-269.79,-142.63L-261.63,-141.83L-256.47,-140.16L-250.00,-136.77L-242.66,-131.24" />
        <path d="M-551.83,-86.85L-548.79,-82.58L-544.05,-80.47L-539.33,-80.93L-534.20,-83.55" />
        <path d="M-317.05,22.99L-308.02,25.93L-302.43,26.32L-292.56,26.24L-275.84,23.11" />
        <path d="M-164.84,113.28L-149.86,107.59L-137.86,104.92" />
        <path d="M-536.49,-361.46L-536.16,-365.93L-534.82,-365.97L-533.85,-362.87L-534.21,-359.74L-536.41,-358.79L-536.49,-361.46" />
        <path d="M-535.61,-361.93L-534.71,-361.96L-534.62,-358.39L-535.03,-357.04L-536.37,-357.00L-537.78,-359.64L-536.06,-362.37L-535.61,-361.93" />
        <path d="M-536.49,-361.46L-535.61,-361.93L-536.03,-361.03" />
      </g>
      <g id="f19" style="--index:19; opacity:0;" class="frame">
        <path d="M-242.66,-131.24L-239.22,-129.55L-234.06,-128.73L-228.91,-128.77L-217.76,-131.00" />
        <path d="M-534.20,-83.55L-522.23,-89.22L-505.95,-93.63" />
        <path d="M-275.84,23.11L-259.11,21.27L-250.53,21.20L-238.49,23.69" />
        <path d="M-137.86,104.92L-134.87,102.75" />
        <path d="M-541.80,-363.10L-541.77,-358.64L-542.75,-362.19L-541.80,-363.10" />
        <path d="M-539.97,-358.25L-540.86,-358.22L-542.25,-359.97L-541.87,-362.66L-540.03,-360.47L-539.97,-358.25" />
        <path d="M-539.97,-358.25L-539.97,-358.25" />
        <path d="M-541.91,-363.99L-539.56,-359.60L-539.97,-358.25L-541.34,-359.55L-541.39,-361.33L-540.50,-361.35" />
      </g>
      <g id="f20" style="--index:20; opacity:0;" class="frame">
        <path d="M-217.76,-131.00L-198.91,-135.87" />
        <path d="M-505.95,-93.63L-495.21,-92.43L-489.61,-89.89L-483.56,-85.22" />
        <path d="M-238.49,23.69L-224.28,29.16L-219.13,29.55L-212.70,28.22" />
        <path d="M-537.79,-360.09L-538.35,-364.54L-537.46,-364.56L-536.08,-362.81L-535.97,-358.80L-538.56,-355.61L-539.08,-358.27L-537.79,-360.09" />
        <path d="M-537.79,-360.09L-537.27,-357.43L-537.70,-356.97L-538.19,-358.29" />
      </g>
      <g id="f21" style="--index:21; opacity:0;" class="frame">
        <path d="M-580.31,-278.52" />
        <path d="M-198.91,-135.87L-189.04,-135.94L-184.73,-133.40" />
        <path d="M-483.56,-85.22L-477.53,-82.26L-467.63,-78.90L-457.32,-77.26" />
        <path d="M-212.70,28.22L-196.03,19.08L-187.90,15.58L-176.76,12.49" />
        <path d="M-550.47,-363.31L-546.21,-366.77L-546.18,-363.34L-547.03,-361.61L-549.17,-360.74L-550.03,-361.16L-550.47,-363.31" />
        <path d="M-550.47,-363.31L-550.06,-365.45L-548.78,-365.89L-547.91,-364.61L-547.88,-361.18L-549.17,-361.17L-549.18,-362.89" />
      </g>
      <g id="f22" style="--index:22; opacity:0;" class="frame">
        <path d="M-580.31,-278.52L-578.63,-283.25L-576.93,-285.41L-570.95,-289.75" />
        <path d="M-184.73,-133.40L-181.72,-132.99L-174.87,-135.62" />
        <path d="M-457.32,-77.26L-447.88,-78.62L-441.46,-80.81L-415.36,-91.74" />
        <path d="M-176.76,12.49L-172.47,12.03L-165.63,8.97" />
        <path d="M-548.82,-362.24L-547.06,-365.48L-547.03,-361.61L-547.88,-361.18L-548.82,-362.24" />
        <path d="M-549.17,-361.60L-548.77,-365.46L-547.07,-366.77L-545.78,-366.77L-544.47,-363.78L-545.30,-360.77L-547.44,-359.89L-547.47,-363.33L-545.76,-363.77L-545.74,-362.05L-546.60,-362.05" />
      </g>
      <g id="f23" style="--index:23; opacity:0;" class="frame">
        <path d="M-570.95,-289.75L-564.09,-290.66L-561.51,-289.82L-557.62,-285.56" />
        <path d="M-415.36,-91.74L-405.50,-93.53L-393.90,-92.33" />
        <path d="M-544.90,-363.56L-545.30,-360.34L-546.15,-359.05L-547.01,-359.04L-547.46,-362.04L-544.90,-363.56" />
        <path d="M-549.19,-363.32L-544.90,-364.21L-544.04,-363.35L-544.44,-359.49L-545.29,-359.05L-546.58,-359.47L-547.04,-363.33" />
      </g>
    </g>
    <g id="t2" transform="translate(260.72 55.39)" class="thread">
      <g id="f0" style="--index:0; opacity:1;" class="frame">
        <path d="M-432.59,-271.47L-404.73,-276.40" />
        <path d="M-518.16,-233.05L-504.02,-237.02L-498.44,-236.64L-495.41,-233.22L-492.79,-228.09" />
        <path d="M-563.96,-158.45L-561.81,-158.03L-556.60,-151.20L-554.02,-150.36" />
        <path d="M-253.90,-83.94L-244.87,-82.72L-232.40,-79.81L-225.95,-77.71L-218.19,-73.91" />
        <path d="M-568.60,23.60" />
        <path d="M-574.49,96.19L-576.24,91.05L-570.73,82.85" />
        <path d="M-507.46,-362.85L-506.50,-358.25L-507.38,-357.78L-507.46,-362.85" />
        <path d="M-506.67,-364.50L-504.91,-365.44L-503.99,-364.57L-503.80,-357.43L-505.15,-357.84L-506.58,-361.37L-506.67,-364.50" />
        <path d="M-506.67,-364.50L-506.67,-364.50" />
        <path d="M-507.52,-363.13L-505.79,-364.97L-504.88,-364.54L-504.35,-361.43L-506.14,-361.39" />
      </g>
      <g id="f1" style="--index:1; opacity:0;" class="frame">
        <path d="M-404.73,-276.40L-384.15,-279.56L-376.85,-279.19" />
        <path d="M-492.79,-228.09L-489.76,-223.82L-486.73,-221.27L-476.39,-216.20L-470.38,-215.38" />
        <path d="M-554.02,-150.36L-550.59,-149.96L-531.77,-159.55" />
        <path d="M-218.19,-73.91L-206.56,-68.42L-201.40,-67.17L-192.81,-66.80" />
        <path d="M-568.60,23.60" />
        <path d="M-570.73,82.85L-565.62,77.23L-559.22,72.03L-552.38,68.12L-545.53,65.49L-539.09,65.01" />
        <path d="M-513.84,-363.35L-512.79,-359.87L-513.18,-357.63L-514.06,-357.16L-513.84,-363.35" />
        <path d="M-514.08,-364.15L-513.84,-363.35L-512.90,-363.88L-512.43,-363.00L-512.31,-358.54L-513.19,-358.07L-514.54,-358.48L-515.06,-361.15L-515.10,-362.93L-514.08,-364.15" />
        <path d="M-513.80,-364.30L-512.44,-363.45L-513.27,-361.19L-514.17,-361.17L-515.13,-363.82L-514.72,-365.17L-513.80,-364.30" />
        <path d="M-513.80,-364.30L-513.80,-364.30" />
        <path d="M-514.26,-364.74L-513.78,-363.41" />
      </g>
      <g id="f2" style="--index:2; opacity:0;" class="frame">
        <path d="M-376.85,-279.19L-356.20,-273.33" />
        <path d="M-470.38,-215.38L-462.65,-215.01L-435.65,-221.65" />
        <path d="M-531.77,-159.55L-523.64,-163.47L-513.79,-165.69L-503.04,-164.06L-499.59,-161.93" />
        <path d="M-192.81,-66.80L-180.79,-66.89L-166.19,-65.28" />
        <path d="M-568.60,23.60" />
        <path d="M-539.09,65.01L-533.07,66.26L-527.47,69.22L-510.21,81.97" />
        <path d="M-506.10,-360.05L-506.10,-360.05" />
        <path d="M-504.37,-361.88L-504.78,-360.53L-506.10,-360.05L-506.19,-363.17L-505.29,-363.19L-504.37,-361.88" />
        <path d="M-504.37,-361.88L-504.37,-361.88" />
        <path d="M-505.70,-361.84L-505.70,-361.84" />
        <path d="M-507.10,-364.04L-505.88,-368.53L-504.98,-368.11L-503.93,-362.34L-505.63,-359.17L-507.51,-362.69L-506.21,-364.06L-506.17,-362.72" />
      </g>
      <g id="f3" style="--index:3; opacity:0;" class="frame">
        <path d="M-356.20,-273.33L-347.18,-272.11L-329.15,-272.68" />
        <path d="M-435.65,-221.65L-426.65,-223.01L-402.18,-222.77" />
        <path d="M-499.59,-161.93L-489.23,-154.29L-479.75,-149.64" />
        <path d="M-166.19,-65.28L-153.73,-64.52L-149.02,-65.84L-146.03,-67.58" />
        <path d="M-568.60,23.60L-565.19,19.71L-555.80,13.20L-545.53,8.83" />
        <path d="M-510.21,81.97L-502.87,86.63L-498.57,88.32L-490.41,89.11L-474.54,86.42" />
        <path d="M-514.59,-360.27L-514.54,-358.48L-515.44,-358.91L-515.13,-363.82L-514.26,-364.74L-512.48,-364.79L-511.95,-361.68L-514.59,-360.27" />
        <path d="M-512.38,-361.22L-512.82,-360.76L-513.74,-362.07L-513.80,-364.30L-512.43,-363.00L-512.38,-361.22" />
        <path d="M-515.08,-362.04L-515.12,-363.38L-513.83,-365.20L-512.04,-365.24L-511.95,-361.68L-513.68,-359.85L-515.48,-360.24L-515.97,-362.01L-515.08,-362.04" />
        <path d="M-514.64,-362.05L-514.59,-360.27L-514.64,-362.05" />
        <path d="M-514.66,-362.94L-514.19,-362.06" />
      </g>
      <g id="f4" style="--index:4; opacity:0;" class="frame">
        <path d="M-329.15,-272.68L-319.71,-273.18L-302.95,-271.16" />
        <path d="M-402.18,-222.77L-375.98,-220.82" />
        <path d="M-479.75,-149.64L-468.14,-146.29L-453.98,-146.82L-447.12,-148.16" />
        <path d="M-146.03,-67.58L-141.76,-71.05" />
        <path d="M-545.53,8.83L-539.95,8.36L-519.30,13.78" />
        <path d="M-474.54,86.42L-447.98,79.78L-434.67,80.11" />
        <path d="M-505.84,-363.45L-508.34,-360.43L-509.67,-359.95L-510.26,-365.29L-509.42,-367.10L-506.29,-367.18L-505.84,-363.45" />
        <path d="M-510.75,-367.06L-506.37,-369.86L-505.37,-365.87L-506.13,-360.94L-507.87,-359.56L-509.26,-361.30L-508.95,-366.22L-507.64,-367.59L-506.74,-367.17L-507.11,-364.48L-508.89,-363.99L-508.92,-365.33" />
      </g>
      <g id="f5" style="--index:5; opacity:0;" class="frame">
        <path d="M-302.95,-271.16L-282.78,-271.74L-271.64,-273.97" />
        <path d="M-375.98,-220.82L-364.40,-221.76L-351.97,-224.86L-345.96,-225.33" />
        <path d="M-447.12,-148.16L-424.40,-151.77L-408.55,-156.61" />
        <path d="M-519.30,13.78L-513.71,15.03L-502.52,20.09L-495.64,20.90L-490.50,20.00" />
        <path d="M-434.67,80.11L-428.65,81.78L-404.08,94.47" />
        <path d="M-512.88,-362.99L-512.80,-360.32L-513.70,-360.29L-514.19,-362.06L-512.88,-362.99" />
        <path d="M-512.88,-362.99L-512.88,-362.99" />
        <path d="M-512.90,-363.88L-512.39,-361.66L-514.14,-360.28L-515.13,-363.82L-512.90,-363.88" />
        <path d="M-512.94,-365.22L-512.42,-362.56L-514.64,-362.05L-513.78,-363.41" />
      </g>
      <g id="f6" style="--index:6; opacity:0;" class="frame">
        <path d="M-271.64,-273.97L-251.50,-279.27L-247.64,-279.30" />
        <path d="M-345.96,-225.33L-335.23,-224.99L-322.32,-220.36" />
        <path d="M-408.55,-156.61L-400.41,-159.25L-390.12,-161.04L-380.66,-158.97" />
        <path d="M-490.50,20.00L-476.38,13.46L-452.87,0.83" />
        <path d="M-404.08,94.47L-389.45,99.52L-381.71,100.75L-371.42,99.81L-364.14,97.61" />
        <path d="M-509.32,-365.11L-507.05,-362.25L-510.14,-360.83L-510.66,-363.50L-509.32,-365.11" />
        <path d="M-509.36,-365.17L-508.04,-365.80L-507.86,-359.11L-508.75,-359.09L-510.14,-360.83L-510.22,-363.95L-509.36,-365.17" />
        <path d="M-509.83,-365.75L-508.45,-364.45L-508.42,-363.11L-509.73,-362.18L-510.68,-364.39L-510.71,-365.28L-509.80,-364.86" />
      </g>
      <g id="f7" style="--index:7; opacity:0;" class="frame">
        <path d="M-247.64,-279.30L-242.05,-278.06L-234.72,-273.82L-230.85,-272.56" />
        <path d="M-322.32,-220.36L-310.71,-217.44L-287.09,-216.76" />
        <path d="M-380.66,-158.97L-366.90,-154.78L-360.00,-151.40" />
        <path d="M-452.87,0.83L-446.87,-1.36L-442.15,-1.82L-436.98,1.14L-434.38,4.13" />
        <path d="M-364.14,97.61L-354.72,94.10L-344.44,91.45L-335.43,90.95L-317.81,92.97" />
        <path d="M-510.95,-363.09L-509.21,-359.52L-509.63,-358.62L-510.56,-359.93L-510.95,-363.09" />
        <path d="M-511.57,-364.36L-510.95,-363.09L-509.32,-363.53L-507.92,-361.34L-508.28,-358.21L-510.55,-359.48L-511.53,-362.58L-510.20,-363.06" />
      </g>
      <g id="f8" style="--index:8; opacity:0;" class="frame">
        <path d="M-230.85,-272.56L-225.26,-271.74L-211.53,-271.85" />
        <path d="M-287.09,-216.76L-272.93,-217.30L-249.35,-220.91" />
        <path d="M-360.00,-151.40L-355.70,-149.71L-352.26,-149.31L-334.67,-150.73" />
        <path d="M-582.59,-67.73" />
        <path d="M-434.38,4.13L-426.58,14.80L-423.12,17.35L-418.82,18.61" />
        <path d="M-317.81,92.97L-282.96,103.87" />
        <path d="M-511.09,-363.04L-510.57,-360.38L-511.09,-363.04" />
        <path d="M-510.38,-363.06L-509.67,-359.95L-511.92,-360.78L-512.86,-362.54L-511.55,-363.47L-510.38,-363.06" />
        <path d="M-510.68,-364.39L-509.26,-361.30" />
      </g>
      <g id="f9" style="--index:9; opacity:0;" class="frame">
        <path d="M-249.35,-220.91L-245.05,-220.51L-240.74,-218.40L-229.52,-210.33" />
        <path d="M-334.67,-150.73L-318.79,-150.85L-311.48,-149.19" />
        <path d="M-582.59,-67.73L-583.06,-73.74" />
        <path d="M-418.82,18.61L-413.67,19.00L-407.24,17.23L-379.41,7.58" />
        <path d="M-282.96,103.87L-274.80,104.23L-264.94,103.30L-234.50,97.49" />
        <path d="M-508.23,-360.21L-506.52,-359.15L-506.49,-357.81L-506.91,-356.90L-508.68,-356.41L-509.21,-359.52L-508.23,-360.21" />
        <path d="M-507.89,-360.00L-507.89,-360.00" />
        <path d="M-507.89,-360.00L-507.89,-360.00" />
        <path d="M-510.61,-361.71L-506.55,-360.04L-508.26,-357.31L-508.33,-359.99" />
      </g>
      <g id="f10" style="--index:10; opacity:0;" class="frame">
        <path d="M-229.52,-210.33L-215.31,-203.57L-201.98,-200.66" />
        <path d="M-311.48,-149.19L-299.83,-140.69L-295.09,-139.44" />
        <path d="M-583.06,-73.74L-573.71,-85.83L-565.17,-91.47" />
        <path d="M-379.41,7.58L-363.14,2.73L-352.42,0.94L-346.84,0.89L-339.51,4.27" />
        <path d="M-234.50,97.49L-219.05,97.37L-212.16,99.90L-200.07,109.68" />
        <path d="M-510.20,-363.06L-512.31,-358.54L-512.85,-362.10L-511.55,-363.47L-510.20,-363.06" />
        <path d="M-510.20,-363.06L-509.63,-358.62L-510.95,-357.69L-511.92,-360.78L-510.20,-363.06" />
        <path d="M-510.20,-363.06L-509.68,-360.40L-511.45,-359.91L-511.92,-360.78" />
      </g>
      <g id="f11" style="--index:11; opacity:0;" class="frame">
        <path d="M-201.98,-200.66L-180.08,-200.40L-171.50,-200.89L-162.93,-202.67" />
        <path d="M-295.09,-139.44L-283.93,-139.52L-280.51,-140.83L-269.79,-142.63" />
        <path d="M-565.17,-91.47L-561.74,-92.79L-559.17,-92.80L-554.43,-89.84L-551.83,-86.85" />
        <path d="M-339.51,4.27L-327.83,16.20L-317.05,22.99" />
        <path d="M-200.07,109.68L-194.03,113.07L-188.01,115.17L-178.99,115.96L-172.98,115.49L-164.84,113.28" />
        <path d="M-507.93,-364.57L-505.69,-361.40L-507.93,-361.78L-507.93,-364.57" />
        <path d="M-507.01,-360.47L-507.54,-363.58L-506.21,-364.06L-507.01,-360.47" />
        <path d="M-508.48,-365.34L-507.93,-364.57L-507.15,-365.82L-505.81,-365.86L-505.34,-364.98L-505.64,-359.62L-506.98,-359.58L-507.01,-360.47L-507.87,-359.56L-508.44,-364.00L-506.64,-363.60L-506.62,-362.71L-507.51,-362.69" />
      </g>
      <g id="f12" style="--index:12; opacity:0;" class="frame">
        <path d="M-162.93,-202.67L-155.22,-204.45L-145.80,-208.38" />
        <path d="M-269.79,-142.63L-261.63,-141.83L-256.47,-140.16L-250.00,-136.77L-242.66,-131.24" />
        <path d="M-551.83,-86.85L-548.79,-82.58L-544.05,-80.47L-539.33,-80.93L-534.20,-83.55" />
        <path d="M-317.05,22.99L-308.02,25.93L-302.43,26.32L-292.56,26.24L-275.84,23.11" />
        <path d="M-164.84,113.28L-149.86,107.59L-137.86,104.92" />
        <path d="M-512.55,-365.68L-511.53,-362.58L-513.73,-361.63L-514.27,-365.18L-512.55,-365.68" />
        <path d="M-512.84,-366.56L-511.98,-363.01L-513.74,-362.07L-514.27,-365.18L-512.84,-366.56" />
        <path d="M-512.98,-367.00L-512.03,-364.80L-513.37,-364.76" />
      </g>
      <g id="f13" style="--index:13; opacity:0;" class="frame">
        <path d="M-242.66,-131.24L-239.22,-129.55L-234.06,-128.73L-228.91,-128.77L-217.76,-131.00" />
        <path d="M-534.20,-83.55L-522.23,-89.22L-505.95,-93.63" />
        <path d="M-275.84,23.11L-259.11,21.27L-250.53,21.20L-238.49,23.69" />
        <path d="M-137.86,104.92L-134.87,102.75" />
        <path d="M-505.12,-366.77L-504.41,-363.66L-506.17,-362.72L-506.73,-366.73L-505.12,-366.77" />
        <path d="M-504.05,-366.80L-503.51,-363.24L-504.40,-363.22L-505.35,-365.42L-504.05,-366.80" />
        <path d="M-504.05,-366.80L-504.05,-366.80" />
        <path d="M-504.05,-366.80L-503.52,-363.69L-505.29,-363.19L-505.37,-365.87L-504.05,-366.80" />
        <path d="M-504.05,-366.80L-504.05,-366.80" />
        <path d="M-505.43,-368.10L-505.12,-366.77L-503.59,-366.36L-503.99,-364.57L-504.86,-363.65L-506.28,-366.74L-506.72,-366.28" />
      </g>
      <g id="f14" style="--index:14; opacity:0;" class="frame">
        <path d="M-217.76,-131.00L-198.91,-135.87" />
        <path d="M-505.95,-93.63L-495.21,-92.43L-489.61,-89.89L-483.56,-85.22" />
        <path d="M-238.49,23.69L-224.28,29.16L-219.13,29.55L-212.70,28.22" />
        <path d="M-505.93,-362.83L-505.20,-359.63L-506.55,-360.04L-507.50,-362.24L-507.52,-363.13L-505.93,-362.83" />
        <path d="M-506.21,-364.06L-505.66,-360.06L-507.87,-359.56L-510.18,-362.17L-510.20,-363.06L-507.99,-364.01L-506.60,-361.82L-507.90,-360.45L-507.95,-362.23" />
      </g>
      <g id="f15" style="--index:15; opacity:0;" class="frame">
        <path d="M-580.31,-278.52" />
        <path d="M-198.91,-135.87L-189.04,-135.94L-184.73,-133.40" />
        <path d="M-483.56,-85.22L-477.53,-82.26L-467.63,-78.90L-457.32,-77.26" />
        <path d="M-212.70,28.22L-196.03,19.08L-187.90,15.58L-176.76,12.49" />
        <path d="M-500.00,-365.57L-500.33,-361.10L-502.47,-357.92L-503.43,-360.12L-503.09,-364.15L-502.24,-365.95L-500.06,-367.80L-498.29,-368.29L-498.27,-367.40L-498.18,-364.28L-499.51,-363.80L-500.00,-365.57" />
        <path d="M-498.74,-363.75L-499.94,-363.34L-499.99,-365.12L-499.10,-365.15L-498.74,-363.75" />
        <path d="M-500.00,-365.57L-500.05,-367.35L-498.76,-369.17L-497.87,-369.20L-497.80,-366.52L-498.74,-363.75L-498.52,-360.25L-499.87,-360.66L-499.91,-362.00" />
      </g>
      <g id="f16" style="--index:16; opacity:0;" class="frame">
        <path d="M-580.31,-278.52L-578.63,-283.25L-576.93,-285.41L-570.95,-289.75" />
        <path d="M-184.73,-133.40L-181.72,-132.99L-174.87,-135.62" />
        <path d="M-457.32,-77.26L-447.88,-78.62L-441.46,-80.81L-415.36,-91.74" />
        <path d="M-176.76,12.49L-172.47,12.03L-165.63,8.97" />
        <path d="M-499.04,-362.78L-495.91,-362.55L-495.44,-361.67L-496.24,-358.53L-498.00,-357.59L-498.92,-358.46L-499.04,-362.78" />
        <path d="M-497.21,-361.18L-497.70,-362.95L-497.21,-361.18" />
        <path d="M-497.21,-361.18L-497.21,-361.18" />
        <path d="M-500.38,-362.88L-497.28,-363.86L-496.38,-363.43L-496.76,-361.19L-498.99,-361.13L-499.91,-362.00L-499.03,-362.47" />
      </g>
      <g id="f17" style="--index:17; opacity:0;" class="frame">
        <path d="M-570.95,-289.75L-564.09,-290.66L-561.51,-289.82L-557.62,-285.56" />
        <path d="M-415.36,-91.74L-405.50,-93.53L-393.90,-92.33" />
        <path d="M-503.91,-361.45L-501.56,-357.05L-502.45,-357.02L-503.38,-358.34L-503.91,-361.45" />
        <path d="M-501.25,-361.96L-501.25,-361.96" />
        <path d="M-501.25,-361.96L-501.25,-361.96" />
        <path d="M-501.17,-359.29L-501.25,-361.96L-501.17,-359.29" />
        <path d="M-501.17,-359.29L-501.17,-359.29" />
        <path d="M-503.91,-361.45L-503.09,-364.15L-500.41,-364.22L-498.98,-360.69L-501.62,-359.28" />
      </g>
      <g id="f18" style="--index:18; opacity:0;" class="frame">
        <path d="M-557.62,-285.56L-552.45,-283.88L-541.28,-282.67" />
        <path d="M-393.90,-92.33L-390.46,-91.50L-377.11,-85.59" />
        <path d="M-503.27,-360.75L-500.69,-357.96L-501.56,-357.05L-502.45,-357.02L-503.38,-358.34L-503.27,-360.75" />
        <path d="M-503.45,-360.95L-501.69,-361.95L-501.09,-356.17L-502.44,-356.58L-503.45,-360.95" />
        <path d="M-503.91,-361.45L-503.45,-360.95L-503.47,-361.90L-501.72,-362.84L-501.63,-359.72L-502.12,-361.49" />
      </g>
      <g id="f19" style="--index:19; opacity:0;" class="frame">
        <path d="M-541.28,-282.67L-531.40,-281.89L-515.95,-282.43" />
        <path d="M-587.57,-216.22" />
        <path d="M-377.11,-85.59L-368.10,-86.52L-352.26,-92.22" />
        <path d="M-502.15,-362.39L-502.05,-358.82L-503.33,-356.55L-504.22,-356.53L-505.22,-360.52L-504.87,-364.10L-503.53,-364.13L-502.15,-362.39" />
        <path d="M-502.15,-362.39L-502.15,-362.39" />
        <path d="M-504.29,-360.94L-503.92,-361.89L-502.15,-362.39L-501.64,-360.17L-502.49,-358.36L-504.29,-360.94" />
        <path d="M-503.79,-356.99L-503.92,-361.89L-502.11,-361.05L-501.19,-359.74L-502.09,-360.16" />
      </g>
      <g id="f20" style="--index:20; opacity:0;" class="frame">
        <path d="M-515.95,-282.43L-509.94,-282.05L-501.77,-279.54L-490.17,-278.34" />
        <path d="M-587.57,-216.22L-583.76,-222.69L-580.77,-224.85L-577.77,-225.74" />
        <path d="M-588.76,-145.81" />
        <path d="M-352.26,-92.22L-336.42,-98.34L-329.13,-98.83" />
        <path d="M-503.66,-357.81L-503.32,-356.11L-504.20,-355.64L-505.11,-356.51L-506.13,-360.94L-505.27,-362.30L-503.50,-362.80L-502.09,-360.16L-502.02,-357.48L-503.66,-357.81" />
        <path d="M-504.30,-359.43L-503.66,-357.81L-504.30,-359.43" />
        <path d="M-505.26,-361.86L-504.30,-359.43L-503.92,-361.89L-500.84,-363.31L-500.29,-359.76L-501.62,-359.28L-501.67,-361.06" />
      </g>
      <g id="f21" style="--index:21; opacity:0;" class="frame">
        <path d="M-490.17,-278.34L-464.87,-282.39" />
        <path d="M-577.77,-225.74L-563.20,-228.85L-560.62,-228.44" />
        <path d="M-588.76,-145.81" />
        <path d="M-329.13,-98.83L-324.83,-97.57L-317.05,-90.76L-313.17,-88.65" />
        <path d="M-510.35,-360.38L-510.07,-358.16L-511.42,-358.57L-512.82,-360.76L-512.90,-363.88L-510.71,-365.28L-509.32,-363.53L-509.24,-360.41L-510.35,-360.38" />
        <path d="M-510.63,-362.60L-510.35,-360.38L-511.04,-361.25L-510.66,-363.50L-508.89,-363.99L-508.36,-360.88L-509.72,-361.74" />
      </g>
      <g id="f22" style="--index:22; opacity:0;" class="frame">
        <path d="M-464.87,-282.39L-454.14,-282.47L-450.70,-281.64L-448.54,-279.94" />
        <path d="M-560.62,-228.44L-554.14,-223.34L-547.69,-221.24" />
        <path d="M-588.76,-145.81L-581.08,-151.88" />
        <path d="M-313.17,-88.65L-303.70,-84.85L-286.52,-83.70" />
        <path d="M-505.85,-363.98L-503.92,-361.89L-504.29,-359.21L-506.97,-359.13L-507.90,-360.45L-508.01,-364.46L-506.67,-364.50L-505.74,-363.18L-505.64,-359.62L-507.03,-361.36L-507.09,-363.59L-505.85,-363.98" />
        <path d="M-507.14,-365.38L-505.76,-364.07L-505.68,-360.95L-506.56,-360.48L-507.04,-361.81" />
      </g>
      <g id="f23" style="--index:23; opacity:0;" class="frame">
        <path d="M-448.54,-279.94L-443.78,-274.82L-440.33,-272.70L-432.59,-271.47" />
        <path d="M-547.69,-221.24L-542.12,-222.57L-518.16,-233.05" />
        <path d="M-581.08,-151.88L-574.67,-156.22L-569.53,-157.97L-563.96,-158.45" />
        <path d="M-286.52,-83.70L-253.90,-83.94" />
        <path d="M-574.49,96.19" />
        <path d="M-513.49,-363.20L-509.68,-360.40L-509.60,-357.28L-511.84,-357.66L-513.23,-359.41L-513.49,-363.20" />
        <path d="M-513.78,-363.41L-511.14,-364.82L-511.42,-358.57L-512.85,-362.10L-512.90,-363.88L-512.01,-363.91L-511.97,-362.57" />
      </g>
    </g>
    <g id="t3" transform="translate(260.72 55.39)" class="thread">
      <g id="f0" style="--index:0; opacity:1;" class="frame">
        <path d="M-271.64,-273.97L-251.50,-279.27L-247.64,-279.30" />
        <path d="M-345.96,-225.33L-335.23,-224.99L-322.32,-220.36" />
        <path d="M-408.55,-156.61L-400.41,-159.25L-390.12,-161.04L-380.66,-158.97" />
        <path d="M-490.50,20.00L-476.38,13.46L-452.87,0.83" />
        <path d="M-404.08,94.47L-389.45,99.52L-381.71,100.75L-371.42,99.81L-364.14,97.61" />
      </g>
      <g id="f1" style="--index:1; opacity:0;" class="frame">
        <path d="M-247.64,-279.30L-242.05,-278.06L-234.72,-273.82L-230.85,-272.56" />
        <path d="M-322.32,-220.36L-310.71,-217.44L-287.09,-216.76" />
        <path d="M-380.66,-158.97L-366.90,-154.78L-360.00,-151.40" />
        <path d="M-452.87,0.83L-446.87,-1.36L-442.15,-1.82L-436.98,1.14L-434.38,4.13" />
        <path d="M-364.14,97.61L-354.72,94.10L-344.44,91.45L-335.43,90.95L-317.81,92.97" />
      </g>
      <g id="f2" style="--index:2; opacity:0;" class="frame">
        <path d="M-230.85,-272.56L-225.26,-271.74L-211.53,-271.85" />
        <path d="M-287.09,-216.76L-272.93,-217.30L-249.35,-220.91" />
        <path d="M-360.00,-151.40L-355.70,-149.71L-352.26,-149.31L-334.67,-150.73" />
        <path d="M-582.59,-67.73" />
        <path d="M-434.38,4.13L-426.58,14.80L-423.12,17.35L-418.82,18.61" />
        <path d="M-317.81,92.97L-282.96,103.87" />
      </g>
      <g id="f3" style="--index:3; opacity:0;" class="frame">
        <path d="M-249.35,-220.91L-245.05,-220.51L-240.74,-218.40L-229.52,-210.33" />
        <path d="M-334.67,-150.73L-318.79,-150.85L-311.48,-149.19" />
        <path d="M-582.59,-67.73L-583.06,-73.74" />
        <path d="M-418.82,18.61L-413.67,19.00L-407.24,17.23L-379.41,7.58" />
        <path d="M-282.96,103.87L-274.80,104.23L-264.94,103.30L-234.50,97.49" />
      </g>
      <g id="f4" style="--index:4; opacity:0;" class="frame">
        <path d="M-229.52,-210.33L-215.31,-203.57L-201.98,-200.66" />
        <path d="M-311.48,-149.19L-299.83,-140.69L-295.09,-139.44" />
        <path d="M-583.06,-73.74L-573.71,-85.83L-565.17,-91.47" />
        <path d="M-379.41,7.58L-363.14,2.73L-352.42,0.94L-346.84,0.89L-339.51,4.27" />
        <path d="M-234.50,97.49L-219.05,97.37L-212.16,99.90L-200.07,109.68" />
      </g>
      <g id="f5" style="--index:5; opacity:0;" class="frame">
        <path d="M-201.98,-200.66L-180.08,-200.40L-171.50,-200.89L-162.93,-202.67" />
        <path d="M-295.09,-139.44L-283.93,-139.52L-280.51,-140.83L-269.79,-142.63" />
        <path d="M-565.17,-91.47L-561.74,-92.79L-559.17,-92.80L-554.43,-89.84L-551.83,-86.85" />
        <path d="M-339.51,4.27L-327.83,16.20L-317.05,22.99" />
        <path d="M-200.07,109.68L-194.03,113.07L-188.01,115.17L-178.99,115.96L-172.98,115.49L-164.84,113.28" />
      </g>
      <g id="f6" style="--index:6; opacity:0;" class="frame">
        <path d="M-162.93,-202.67L-155.22,-204.45L-145.80,-208.38" />
        <path d="M-269.79,-142.63L-261.63,-141.83L-256.47,-140.16L-250.00,-136.77L-242.66,-131.24" />
        <path d="M-551.83,-86.85L-548.79,-82.58L-544.05,-80.47L-539.33,-80.93L-534.20,-83.55" />
        <path d="M-317.05,22.99L-308.02,25.93L-302.43,26.32L-292.56,26.24L-275.84,23.11" />
        <path d="M-164.84,113.28L-149.86,107.59L-137.86,104.92" />
      </g>
      <g id="f7" style="--index:7; opacity:0;" class="frame">
        <path d="M-242.66,-131.24L-239.22,-129.55L-234.06,-128.73L-228.91,-128.77L-217.76,-131.00" />
        <path d="M-534.20,-83.55L-522.23,-89.22L-505.95,-93.63" />
        <path d="M-275.84,23.11L-259.11,21.27L-250.53,21.20L-238.49,23.69" />
        <path d="M-137.86,104.92L-134.87,102.75" />
      </g>
      <g id="f8" style="--index:8; opacity:0;" class="frame">
        <path d="M-217.76,-131.00L-198.91,-135.87" />
        <path d="M-505.95,-93.63L-495.21,-92.43L-489.61,-89.89L-483.56,-85.22" />
        <path d="M-238.49,23.69L-224.28,29.16L-219.13,29.55L-212.70,28.22" />
      </g>
      <g id="f9" style="--index:9; opacity:0;" class="frame">
        <path d="M-580.31,-278.52" />
        <path d="M-198.91,-135.87L-189.04,-135.94L-184.73,-133.40" />
        <path d="M-483.56,-85.22L-477.53,-82.26L-467.63,-78.90L-457.32,-77.26" />
        <path d="M-212.70,28.22L-196.03,19.08L-187.90,15.58L-176.76,12.49" />
      </g>
      <g id="f10" style="--index:10; opacity:0;" class="frame">
        <path d="M-580.31,-278.52L-578.63,-283.25L-576.93,-285.41L-570.95,-289.75" />
        <path d="M-184.73,-133.40L-181.72,-132.99L-174.87,-135.62" />
        <path d="M-457.32,-77.26L-447.88,-78.62L-441.46,-80.81L-415.36,-91.74" />
        <path d="M-176.76,12.49L-172.47,12.03L-165.63,8.97" />
      </g>
      <g id="f11" style="--index:11; opacity:0;" class="frame">
        <path d="M-570.95,-289.75L-564.09,-290.66L-561.51,-289.82L-557.62,-285.56" />
        <path d="M-415.36,-91.74L-405.50,-93.53L-393.90,-92.33" />
      </g>
      <g id="f12" style="--index:12; opacity:0;" class="frame">
        <path d="M-557.62,-285.56L-552.45,-283.88L-541.28,-282.67" />
        <path d="M-393.90,-92.33L-390.46,-91.50L-377.11,-85.59" />
      </g>
      <g id="f13" style="--index:13; opacity:0;" class="frame">
        <path d="M-541.28,-282.67L-531.40,-281.89L-515.95,-282.43" />
        <path d="M-587.57,-216.22" />
        <path d="M-377.11,-85.59L-368.10,-86.52L-352.26,-92.22" />
      </g>
      <g id="f14" style="--index:14; opacity:0;" class="frame">
        <path d="M-515.95,-282.43L-509.94,-282.05L-501.77,-279.54L-490.17,-278.34" />
        <path d="M-587.57,-216.22L-583.76,-222.69L-580.77,-224.85L-577.77,-225.74" />
        <path d="M-588.76,-145.81" />
        <path d="M-352.26,-92.22L-336.42,-98.34L-329.13,-98.83" />
      </g>
      <g id="f15" style="--index:15; opacity:0;" class="frame">
        <path d="M-490.17,-278.34L-464.87,-282.39" />
        <path d="M-577.77,-225.74L-563.20,-228.85L-560.62,-228.44" />
        <path d="M-588.76,-145.81" />
        <path d="M-329.13,-98.83L-324.83,-97.57L-317.05,-90.76L-313.17,-88.65" />
      </g>
      <g id="f16" style="--index:16; opacity:0;" class="frame">
        <path d="M-464.87,-282.39L-454.14,-282.47L-450.70,-281.64L-448.54,-279.94" />
        <path d="M-560.62,-228.44L-554.14,-223.34L-547.69,-221.24" />
        <path d="M-588.76,-145.81L-581.08,-151.88" />
        <path d="M-313.17,-88.65L-303.70,-84.85L-286.52,-83.70" />
      </g>
      <g id="f17" style="--index:17; opacity:0;" class="frame">
        <path d="M-448.54,-279.94L-443.78,-274.82L-440.33,-272.70L-432.59,-271.47" />
        <path d="M-547.69,-221.24L-542.12,-222.57L-518.16,-233.05" />
        <path d="M-581.08,-151.88L-574.67,-156.22L-569.53,-157.97L-563.96,-158.45" />
        <path d="M-286.52,-83.70L-253.90,-83.94" />
        <path d="M-574.49,96.19" />
      </g>
      <g id="f18" style="--index:18; opacity:0;" class="frame">
        <path d="M-432.59,-271.47L-404.73,-276.40" />
        <path d="M-518.16,-233.05L-504.02,-237.02L-498.44,-236.64L-495.41,-233.22L-492.79,-228.09" />
        <path d="M-563.96,-158.45L-561.81,-158.03L-556.60,-151.20L-554.02,-150.36" />
        <path d="M-253.90,-83.94L-244.87,-82.72L-232.40,-79.81L-225.95,-77.71L-218.19,-73.91" />
        <path d="M-568.60,23.60" />
        <path d="M-574.49,96.19L-576.24,91.05L-570.73,82.85" />
      </g>
      <g id="f19" style="--index:19; opacity:0;" class="frame">
        <path d="M-404.73,-276.40L-384.15,-279.56L-376.85,-279.19" />
        <path d="M-492.79,-228.09L-489.76,-223.82L-486.73,-221.27L-476.39,-216.20L-470.38,-215.38" />
        <path d="M-554.02,-150.36L-550.59,-149.96L-531.77,-159.55" />
        <path d="M-218.19,-73.91L-206.56,-68.42L-201.40,-67.17L-192.81,-66.80" />
        <path d="M-568.60,23.60" />
        <path d="M-570.73,82.85L-565.62,77.23L-559.22,72.03L-552.38,68.12L-545.53,65.49L-539.09,65.01" />
      </g>
      <g id="f20" style="--index:20; opacity:0;" class="frame">
        <path d="M-376.85,-279.19L-356.20,-273.33" />
        <path d="M-470.38,-215.38L-462.65,-215.01L-435.65,-221.65" />
        <path d="M-531.77,-159.55L-523.64,-163.47L-513.79,-165.69L-503.04,-164.06L-499.59,-161.93" />
        <path d="M-192.81,-66.80L-180.79,-66.89L-166.19,-65.28" />
        <path d="M-568.60,23.60" />
        <path d="M-539.09,65.01L-533.07,66.26L-527.47,69.22L-510.21,81.97" />
      </g>
      <g id="f21" style="--index:21; opacity:0;" class="frame">
        <path d="M-356.20,-273.33L-347.18,-272.11L-329.15,-272.68" />
        <path d="M-435.65,-221.65L-426.65,-223.01L-402.18,-222.77" />
        <path d="M-499.59,-161.93L-489.23,-154.29L-479.75,-149.64" />
        <path d="M-166.19,-65.28L-153.73,-64.52L-149.02,-65.84L-146.03,-67.58" />
        <path d="M-568.60,23.60L-565.19,19.71L-555.80,13.20L-545.53,8.83" />
        <path d="M-510.21,81.97L-502.87,86.63L-498.57,88.32L-490.41,89.11L-474.54,86.42" />
      </g>
      <g id="f22" style="--index:22; opacity:0;" class="frame">
        <path d="M-329.15,-272.68L-319.71,-273.18L-302.95,-271.16" />
        <path d="M-402.18,-222.77L-375.98,-220.82" />
        <path d="M-479.75,-149.64L-468.14,-146.29L-453.98,-146.82L-447.12,-148.16" />
        <path d="M-146.03,-67.58L-141.76,-71.05" />
        <path d="M-545.53,8.83L-539.95,8.36L-519.30,13.78" />
        <path d="M-474.54,86.42L-447.98,79.78L-434.67,80.11" />
      </g>
      <g id="f23" style="--index:23; opacity:0;" class="frame">
        <path d="M-302.95,-271.16L-282.78,-271.74L-271.64,-273.97" />
        <path d="M-375.98,-220.82L-364.40,-221.76L-351.97,-224.86L-345.96,-225.33" />
        <path d="M-447.12,-148.16L-424.40,-151.77L-408.55,-156.61" />
        <path d="M-519.30,13.78L-513.71,15.03L-502.52,20.09L-495.64,20.90L-490.50,20.00" />
        <path d="M-434.67,80.11L-428.65,81.78L-404.08,94.47" />
      </g>
    </g>
    <g id="t4" transform="translate(260.72 55.39)" class="thread">
      <g id="f0" style="--index:0; opacity:1;" class="frame">
        <path d="M-162.93,-202.67L-155.22,-204.45L-145.80,-208.38" />
        <path d="M-269.79,-142.63L-261.63,-141.83L-256.47,-140.16L-250.00,-136.77L-242.66,-131.24" />
        <path d="M-551.83,-86.85L-548.79,-82.58L-544.05,-80.47L-539.33,-80.93L-534.20,-83.55" />
        <path d="M-317.05,22.99L-308.02,25.93L-302.43,26.32L-292.56,26.24L-275.84,23.11" />
        <path d="M-164.84,113.28L-149.86,107.59L-137.86,104.92" />
        <path d="M-579.24,-363.38L-580.12,-366.52L-577.97,-366.96L-576.23,-363.97L-576.21,-360.54L-578.36,-360.52L-579.24,-363.38" />
        <path d="M-578.79,-361.80L-578.82,-364.81L-577.53,-364.39L-576.64,-360.53L-577.06,-359.67L-577.93,-361.38L-578.79,-361.38L-579.21,-359.66L-579.65,-361.37" />
      </g>
      <g id="f1" style="--index:1; opacity:0;" class="frame">
        <path d="M-242.66,-131.24L-239.22,-129.55L-234.06,-128.73L-228.91,-128.77L-217.76,-131.00" />
        <path d="M-534.20,-83.55L-522.23,-89.22L-505.95,-93.63" />
        <path d="M-275.84,23.11L-259.11,21.27L-250.53,21.20L-238.49,23.69" />
        <path d="M-137.86,104.92L-134.87,102.75" />
        <path d="M-577.07,-360.96" />
        <path d="M-576.04,-358.09L-576.49,-355.48L-575.58,-355.06L-575.19,-356.85L-576.04,-358.09" />
        <path d="M-576.11,-358.17L-577.43,-357.24L-577.38,-355.45L-574.68,-354.63L-574.29,-356.88L-576.11,-358.17" />
        <path d="M-576.11,-358.17L-576.11,-358.17" />
        <path d="M-575.72,-359.96L-576.04,-358.09L-576.60,-359.49L-578.83,-359.43" />
      </g>
      <g id="f2" style="--index:2; opacity:0;" class="frame">
        <path d="M-217.76,-131.00L-198.91,-135.87" />
        <path d="M-505.95,-93.63L-495.21,-92.43L-489.61,-89.89L-483.56,-85.22" />
        <path d="M-238.49,23.69L-224.28,29.16L-219.13,29.55L-212.70,28.22" />
        <path d="M-580.08,-361.37L-581.83,-366.07L-580.98,-366.94L-580.12,-366.95L-579.25,-365.24L-578.36,-361.38L-579.21,-359.66L-580.08,-361.37" />
        <path d="M-580.08,-361.37L-580.53,-364.37L-577.52,-363.96L-577.07,-360.53L-577.91,-358.81L-578.38,-363.95L-577.52,-363.53L-577.51,-362.24" />
      </g>
      <g id="f3" style="--index:3; opacity:0;" class="frame">
        <path d="M-580.31,-278.52" />
        <path d="M-198.91,-135.87L-189.04,-135.94L-184.73,-133.40" />
        <path d="M-483.56,-85.22L-477.53,-82.26L-467.63,-78.90L-457.32,-77.26" />
        <path d="M-212.70,28.22L-196.03,19.08L-187.90,15.58L-176.76,12.49" />
        <path d="M-577.30,-363.53L-577.96,-365.24L-576.26,-367.83L-575.40,-366.98L-574.92,-360.55L-576.63,-359.25L-577.92,-359.66L-578.80,-363.09L-577.30,-363.53" />
        <path d="M-576.65,-362.68L-577.30,-363.53L-576.65,-362.68" />
        <path d="M-575.35,-360.97L-576.65,-362.25" />
      </g>
      <g id="f4" style="--index:4; opacity:0;" class="frame">
        <path d="M-580.31,-278.52L-578.63,-283.25L-576.93,-285.41L-570.95,-289.75" />
        <path d="M-184.73,-133.40L-181.72,-132.99L-174.87,-135.62" />
        <path d="M-457.32,-77.26L-447.88,-78.62L-441.46,-80.81L-415.36,-91.74" />
        <path d="M-176.76,12.49L-172.47,12.03L-165.63,8.97" />
        <path d="M-577.35,-359.43L-578.37,-363.10L-576.66,-363.54L-576.20,-359.25L-577.35,-359.43" />
        <path d="M-577.05,-358.38L-579.23,-362.66L-577.95,-364.39L-576.24,-364.40L-575.34,-359.68L-576.63,-359.25L-576.64,-361.39" />
      </g>
      <g id="f5" style="--index:5; opacity:0;" class="frame">
        <path d="M-570.95,-289.75L-564.09,-290.66L-561.51,-289.82L-557.62,-285.56" />
        <path d="M-415.36,-91.74L-405.50,-93.53L-393.90,-92.33" />
        <path d="M-575.36,-361.19L-576.62,-357.96L-577.48,-357.95L-577.94,-362.24L-576.23,-363.54L-575.36,-361.19" />
        <path d="M-574.93,-362.26L-576.19,-358.39L-577.05,-358.38L-577.51,-362.24L-576.23,-363.11L-575.79,-362.26" />
      </g>
      <g id="f6" style="--index:6; opacity:0;" class="frame">
        <path d="M-557.62,-285.56L-552.45,-283.88L-541.28,-282.67" />
        <path d="M-393.90,-92.33L-390.46,-91.50L-377.11,-85.59" />
        <path d="M-572.37,-364.00L-571.48,-359.71L-572.33,-358.42L-573.19,-358.41L-574.48,-358.83L-575.35,-360.54L-575.40,-366.55L-573.68,-366.56L-572.37,-364.00" />
        <path d="M-572.37,-364.00L-572.37,-364.00" />
        <path d="M-574.02,-360.98L-572.37,-364.00L-571.92,-361.43L-574.02,-360.98" />
        <path d="M-574.93,-362.26L-574.93,-362.26" />
        <path d="M-574.49,-360.12L-574.02,-360.98L-574.93,-362.26" />
      </g>
      <g id="f7" style="--index:7; opacity:0;" class="frame">
        <path d="M-541.28,-282.67L-531.40,-281.89L-515.95,-282.43" />
        <path d="M-587.57,-216.22" />
        <path d="M-377.11,-85.59L-368.10,-86.52L-352.26,-92.22" />
        <path d="M-576.65,-361.82L-576.62,-357.53L-576.65,-361.82" />
        <path d="M-573.37,-363.42L-571.93,-361.86L-571.91,-359.71L-574.05,-358.41L-577.05,-358.81L-576.66,-363.11L-575.38,-363.98L-573.37,-363.42" />
        <path d="M-576.65,-362.25L-573.66,-363.56L-573.21,-361.42L-574.49,-360.12L-576.65,-362.25" />
        <path d="M-576.65,-362.25L-576.65,-362.25" />
      </g>
      <g id="f8" style="--index:8; opacity:0;" class="frame">
        <path d="M-515.95,-282.43L-509.94,-282.05L-501.77,-279.54L-490.17,-278.34" />
        <path d="M-587.57,-216.22L-583.76,-222.69L-580.77,-224.85L-577.77,-225.74" />
        <path d="M-588.76,-145.81" />
        <path d="M-352.26,-92.22L-336.42,-98.34L-329.13,-98.83" />
        <path d="M-576.65,-361.53L-573.19,-359.27L-575.76,-358.39L-576.65,-361.53" />
        <path d="M-576.23,-362.83L-575.38,-363.98L-572.80,-364.00L-572.34,-359.71L-574.47,-357.97L-575.76,-357.96L-576.20,-358.82L-576.23,-362.83" />
        <path d="M-573.65,-363.13L-573.64,-360.98L-574.49,-359.69L-574.94,-363.12L-573.65,-363.13" />
        <path d="M-577.08,-361.82L-576.65,-361.53L-575.38,-364.84L-572.36,-362.71" />
      </g>
      <g id="f9" style="--index:9; opacity:0;" class="frame">
        <path d="M-490.17,-278.34L-464.87,-282.39" />
        <path d="M-577.77,-225.74L-563.20,-228.85L-560.62,-228.44" />
        <path d="M-588.76,-145.81" />
        <path d="M-329.13,-98.83L-324.83,-97.57L-317.05,-90.76L-313.17,-88.65" />
        <path d="M-575.59,-363.33L-573.20,-360.56L-573.18,-357.98L-575.77,-358.82L-576.22,-361.39L-575.59,-363.33" />
        <path d="M-573.23,-364.42L-572.78,-360.99L-573.64,-360.98L-574.09,-363.99L-573.23,-364.42" />
        <path d="M-573.23,-364.42L-573.23,-364.42" />
        <path d="M-573.23,-364.42L-571.95,-364.86L-571.51,-364.01L-572.36,-361.85L-573.21,-361.85L-573.23,-364.42" />
        <path d="M-573.23,-364.42L-573.23,-364.42" />
        <path d="M-577.08,-362.25L-575.76,-357.96L-577.04,-357.10L-577.92,-359.24L-577.94,-362.67L-571.52,-365.29L-571.50,-362.29L-572.36,-361.85" />
      </g>
      <g id="f10" style="--index:10; opacity:0;" class="frame">
        <path d="M-464.87,-282.39L-454.14,-282.47L-450.70,-281.64L-448.54,-279.94" />
        <path d="M-560.62,-228.44L-554.14,-223.34L-547.69,-221.24" />
        <path d="M-588.76,-145.81L-581.08,-151.88" />
        <path d="M-313.17,-88.65L-303.70,-84.85L-286.52,-83.70" />
        <path d="M-576.65,-362.25L-577.52,-363.10L-577.54,-366.11L-574.97,-367.41L-574.91,-359.69L-576.21,-360.54L-576.65,-362.25" />
        <path d="M-576.65,-362.25L-576.65,-362.25" />
        <path d="M-576.57,-365.52L-576.22,-362.25L-577.09,-363.96L-576.57,-365.52" />
        <path d="M-574.10,-366.13L-573.65,-362.27L-575.36,-362.26L-576.66,-363.97L-576.24,-365.26L-574.10,-366.13" />
        <path d="M-574.10,-366.13L-574.10,-366.13" />
        <path d="M-576.68,-366.54L-576.57,-365.52L-574.10,-366.13L-571.95,-364.43L-572.79,-363.14L-574.93,-362.26L-575.38,-364.41" />
      </g>
      <g id="f11" style="--index:11; opacity:0;" class="frame">
        <path d="M-448.54,-279.94L-443.78,-274.82L-440.33,-272.70L-432.59,-271.47" />
        <path d="M-547.69,-221.24L-542.12,-222.57L-518.16,-233.05" />
        <path d="M-581.08,-151.88L-574.67,-156.22L-569.53,-157.97L-563.96,-158.45" />
        <path d="M-286.52,-83.70L-253.90,-83.94" />
        <path d="M-574.49,96.19" />
        <path d="M-574.31,-364.84L-572.79,-362.71L-575.79,-362.26L-575.81,-363.97L-574.31,-364.84" />
        <path d="M-576.95,-363.54L-575.80,-363.54L-575.36,-362.26L-576.65,-361.82L-576.95,-363.54" />
        <path d="M-575.83,-366.98L-573.67,-364.85L-574.05,-359.26L-575.34,-359.25L-577.08,-362.68L-576.67,-365.25L-575.82,-365.26L-575.37,-363.55" />
      </g>
      <g id="f12" style="--index:12; opacity:0;" class="frame">
        <path d="M-432.59,-271.47L-404.73,-276.40" />
        <path d="M-518.16,-233.05L-504.02,-237.02L-498.44,-236.64L-495.41,-233.22L-492.79,-228.09" />
        <path d="M-563.96,-158.45L-561.81,-158.03L-556.60,-151.20L-554.02,-150.36" />
        <path d="M-253.90,-83.94L-244.87,-82.72L-232.40,-79.81L-225.95,-77.71L-218.19,-73.91" />
        <path d="M-568.60,23.60" />
        <path d="M-574.49,96.19L-576.24,91.05L-570.73,82.85" />
        <path d="M-577.50,-362.62L-574.50,-360.98L-575.76,-357.53L-576.62,-357.53L-577.50,-362.62" />
        <path d="M-575.59,-363.97L-574.92,-360.98L-576.20,-359.68L-577.07,-360.96L-577.09,-363.11L-576.66,-363.97L-575.59,-363.97" />
        <path d="M-577.53,-364.39L-577.10,-364.82L-574.09,-363.56L-573.64,-361.41L-575.79,-361.40L-577.53,-364.39" />
        <path d="M-578.37,-363.10L-577.50,-362.62L-577.53,-364.82L-576.25,-365.69L-574.96,-365.27L-574.08,-363.13L-574.50,-361.84" />
      </g>
      <g id="f13" style="--index:13; opacity:0;" class="frame">
        <path d="M-404.73,-276.40L-384.15,-279.56L-376.85,-279.19" />
        <path d="M-492.79,-228.09L-489.76,-223.82L-486.73,-221.27L-476.39,-216.20L-470.38,-215.38" />
        <path d="M-554.02,-150.36L-550.59,-149.96L-531.77,-159.55" />
        <path d="M-218.19,-73.91L-206.56,-68.42L-201.40,-67.17L-192.81,-66.80" />
        <path d="M-568.60,23.60" />
        <path d="M-570.73,82.85L-565.62,77.23L-559.22,72.03L-552.38,68.12L-545.53,65.49L-539.09,65.01" />
        <path d="M-577.25,-363.86L-575.38,-364.41L-574.94,-363.12L-575.34,-359.25L-577.04,-357.53L-577.25,-363.86" />
        <path d="M-574.93,-361.40L-575.38,-364.41L-574.52,-364.84L-574.08,-362.70L-574.93,-361.40" />
        <path d="M-578.33,-357.52L-579.23,-362.23L-577.10,-364.82L-574.53,-366.13L-573.67,-365.28L-573.22,-362.28L-573.64,-360.98L-575.78,-360.97" />
      </g>
      <g id="f14" style="--index:14; opacity:0;" class="frame">
        <path d="M-376.85,-279.19L-356.20,-273.33" />
        <path d="M-470.38,-215.38L-462.65,-215.01L-435.65,-221.65" />
        <path d="M-531.77,-159.55L-523.64,-163.47L-513.79,-165.69L-503.04,-164.06L-499.59,-161.93" />
        <path d="M-192.81,-66.80L-180.79,-66.89L-166.19,-65.28" />
        <path d="M-568.60,23.60" />
        <path d="M-539.09,65.01L-533.07,66.26L-527.47,69.22L-510.21,81.97" />
        <path d="M-576.85,-362.68L-574.48,-358.40L-574.90,-357.97L-577.48,-358.81L-579.22,-360.94L-579.22,-361.80L-576.85,-362.68" />
        <path d="M-576.22,-361.39L-575.32,-356.25L-577.03,-355.81L-578.33,-357.52L-578.35,-359.66L-577.93,-360.95L-576.22,-361.39" />
        <path d="M-577.09,-363.11L-576.22,-361.39L-573.64,-361.41L-573.63,-359.70L-574.48,-359.26L-575.35,-360.97" />
      </g>
      <g id="f15" style="--index:15; opacity:0;" class="frame">
        <path d="M-356.20,-273.33L-347.18,-272.11L-329.15,-272.68" />
        <path d="M-435.65,-221.65L-426.65,-223.01L-402.18,-222.77" />
        <path d="M-499.59,-161.93L-489.23,-154.29L-479.75,-149.64" />
        <path d="M-166.19,-65.28L-153.73,-64.52L-149.02,-65.84L-146.03,-67.58" />
        <path d="M-568.60,23.60L-565.19,19.71L-555.80,13.20L-545.53,8.83" />
        <path d="M-510.21,81.97L-502.87,86.63L-498.57,88.32L-490.41,89.11L-474.54,86.42" />
        <path d="M-576.04,-357.53L-574.89,-356.68L-576.18,-356.24L-578.33,-357.09L-578.77,-358.37L-577.93,-360.95L-573.65,-362.70L-572.77,-359.70L-576.04,-357.53" />
        <path d="M-577.90,-358.90L-576.04,-357.53L-577.90,-357.52L-577.90,-358.90" />
        <path d="M-578.35,-359.23L-577.90,-358.90L-576.66,-363.11L-573.66,-363.99L-573.21,-360.99L-574.92,-360.55L-574.93,-361.83" />
      </g>
      <g id="f16" style="--index:16; opacity:0;" class="frame">
        <path d="M-329.15,-272.68L-319.71,-273.18L-302.95,-271.16" />
        <path d="M-402.18,-222.77L-375.98,-220.82" />
        <path d="M-479.75,-149.64L-468.14,-146.29L-453.98,-146.82L-447.12,-148.16" />
        <path d="M-146.03,-67.58L-141.76,-71.05" />
        <path d="M-545.53,8.83L-539.95,8.36L-519.30,13.78" />
        <path d="M-474.54,86.42L-447.98,79.78L-434.67,80.11" />
        <path d="M-575.40,-361.67L-573.67,-364.85L-572.80,-364.43L-573.20,-360.56L-574.05,-358.84L-576.62,-357.96L-577.07,-360.96L-575.40,-361.67" />
        <path d="M-575.78,-360.97L-573.22,-362.28L-574.49,-359.69L-575.77,-358.82L-576.64,-360.53L-576.66,-363.54L-574.09,-363.56" />
      </g>
      <g id="f17" style="--index:17; opacity:0;" class="frame">
        <path d="M-302.95,-271.16L-282.78,-271.74L-271.64,-273.97" />
        <path d="M-375.98,-220.82L-364.40,-221.76L-351.97,-224.86L-345.96,-225.33" />
        <path d="M-447.12,-148.16L-424.40,-151.77L-408.55,-156.61" />
        <path d="M-519.30,13.78L-513.71,15.03L-502.52,20.09L-495.64,20.90L-490.50,20.00" />
        <path d="M-434.67,80.11L-428.65,81.78L-404.08,94.47" />
        <path d="M-575.77,-359.68L-575.81,-363.97L-573.67,-365.28L-573.64,-360.98L-575.77,-359.68" />
        <path d="M-572.64,-360.99L-574.07,-361.41L-574.51,-363.12L-572.37,-363.14L-572.64,-360.99" />
        <path d="M-575.77,-359.68L-576.22,-361.82L-575.38,-363.98L-573.24,-364.85L-572.37,-364.43L-571.50,-362.72L-571.92,-361.00L-574.06,-359.69L-575.77,-359.68" />
        <path d="M-575.77,-359.68L-577.06,-360.10" />
      </g>
      <g id="f18" style="--index:18; opacity:0;" class="frame">
        <path d="M-271.64,-273.97L-251.50,-279.27L-247.64,-279.30" />
        <path d="M-345.96,-225.33L-335.23,-224.99L-322.32,-220.36" />
        <path d="M-408.55,-156.61L-400.41,-159.25L-390.12,-161.04L-380.66,-158.97" />
        <path d="M-490.50,20.00L-476.38,13.46L-452.87,0.83" />
        <path d="M-404.08,94.47L-389.45,99.52L-381.71,100.75L-371.42,99.81L-364.14,97.61" />
        <path d="M-574.22,-358.92L-575.79,-361.83L-575.81,-363.97L-574.52,-364.41L-573.64,-361.84L-574.22,-358.92" />
        <path d="M-573.66,-363.56L-573.19,-359.27L-574.48,-358.40L-576.62,-357.96L-578.35,-360.09L-578.36,-361.81L-577.95,-363.10L-574.95,-364.41L-574.91,-359.69" />
      </g>
      <g id="f19" style="--index:19; opacity:0;" class="frame">
        <path d="M-247.64,-279.30L-242.05,-278.06L-234.72,-273.82L-230.85,-272.56" />
        <path d="M-322.32,-220.36L-310.71,-217.44L-287.09,-216.76" />
        <path d="M-380.66,-158.97L-366.90,-154.78L-360.00,-151.40" />
        <path d="M-452.87,0.83L-446.87,-1.36L-442.15,-1.82L-436.98,1.14L-434.38,4.13" />
        <path d="M-364.14,97.61L-354.72,94.10L-344.44,91.45L-335.43,90.95L-317.81,92.97" />
        <path d="M-576.27,-359.45L-577.05,-358.38L-577.92,-359.24L-577.93,-361.38L-576.23,-363.54L-574.52,-363.98L-573.20,-360.56L-573.62,-359.27L-575.77,-358.82L-576.27,-359.45" />
        <path d="M-575.14,-360.97L-576.27,-359.45L-576.65,-362.25L-574.09,-363.56L-573.21,-360.99L-575.14,-360.97" />
        <path d="M-574.50,-361.84L-575.36,-361.40" />
      </g>
      <g id="f20" style="--index:20; opacity:0;" class="frame">
        <path d="M-230.85,-272.56L-225.26,-271.74L-211.53,-271.85" />
        <path d="M-287.09,-216.76L-272.93,-217.30L-249.35,-220.91" />
        <path d="M-360.00,-151.40L-355.70,-149.71L-352.26,-149.31L-334.67,-150.73" />
        <path d="M-582.59,-67.73" />
        <path d="M-434.38,4.13L-426.58,14.80L-423.12,17.35L-418.82,18.61" />
        <path d="M-317.81,92.97L-282.96,103.87" />
        <path d="M-575.36,-361.83L-573.61,-357.55L-574.46,-356.69L-576.61,-356.67L-577.07,-361.39L-575.36,-361.83" />
        <path d="M-575.36,-361.83L-573.64,-360.98L-573.19,-358.84L-573.61,-357.98L-576.20,-358.82L-576.64,-360.96L-574.50,-360.98" />
      </g>
      <g id="f21" style="--index:21; opacity:0;" class="frame">
        <path d="M-249.35,-220.91L-245.05,-220.51L-240.74,-218.40L-229.52,-210.33" />
        <path d="M-334.67,-150.73L-318.79,-150.85L-311.48,-149.19" />
        <path d="M-582.59,-67.73L-583.06,-73.74" />
        <path d="M-418.82,18.61L-413.67,19.00L-407.24,17.23L-379.41,7.58" />
        <path d="M-282.96,103.87L-274.80,104.23L-264.94,103.30L-234.50,97.49" />
        <path d="M-576.19,-358.39" />
        <path d="M-577.46,-358.58" />
        <path d="M-575.74,-360.85" />
        <path d="M-577.54,-361.25" />
      </g>
      <g id="f22" style="--index:22; opacity:0;" class="frame">
        <path d="M-229.52,-210.33L-215.31,-203.57L-201.98,-200.66" />
        <path d="M-311.48,-149.19L-299.83,-140.69L-295.09,-139.44" />
        <path d="M-583.06,-73.74L-573.71,-85.83L-565.17,-91.47" />
        <path d="M-379.41,7.58L-363.14,2.73L-352.42,0.94L-346.84,0.89L-339.51,4.27" />
        <path d="M-234.50,97.49L-219.05,97.37L-212.16,99.90L-200.07,109.68" />
        <path d="M-577.93,-361.38" />
        <path d="M-578.79,-360.95" />
        <path d="M-576.59,-359.27L-574.90,-362.66L-574.34,-358.66L-576.10,-357.72L-576.59,-359.27" />
        <path d="M-577.01,-358.14L-576.64,-361.28L-575.76,-361.74L-574.82,-359.99L-576.11,-358.17L-577.01,-358.14" />
        <path d="M-577.01,-358.14L-577.46,-358.58" />
      </g>
      <g id="f23" style="--index:23; opacity:0;" class="frame">
        <path d="M-201.98,-200.66L-180.08,-200.40L-171.50,-200.89L-162.93,-202.67" />
        <path d="M-295.09,-139.44L-283.93,-139.52L-280.51,-140.83L-269.79,-142.63" />
        <path d="M-565.17,-91.47L-561.74,-92.79L-559.17,-92.80L-554.43,-89.84L-551.83,-86.85" />
        <path d="M-339.51,4.27L-327.83,16.20L-317.05,22.99" />
        <path d="M-200.07,109.68L-194.03,113.07L-188.01,115.17L-178.99,115.96L-172.98,115.49L-164.84,113.28" />
        <path d="M-579.21,-360.08" />
        <path d="M-577.45,-361.31L-577.56,-362.14L-575.32,-361.76L-575.20,-357.30L-576.96,-356.36L-577.86,-356.78L-578.36,-358.55L-577.45,-361.31" />
        <path d="M-576.99,-357.70L-577.45,-361.31L-575.33,-362.20L-574.79,-358.65L-575.64,-357.29L-576.97,-356.80L-577.92,-359.01" />
      </g>
    </g>
  </g>
</svg>
