<?xml version="1.0" encoding="utf-8"?>
<!-- Generator: Adobe Illustrator 19.1.0, SVG Export Plug-In . SVG Version: 6.00 Build 0)  -->
<svg version="1.1" xmlns="http://www.w3.org/2000/svg" xmlns:xlink="http://www.w3.org/1999/xlink" x="0px" y="0px"
	 viewBox="0 0 500 500" enable-background="new 0 0 500 500" xml:space="preserve">
<g id="Layer_1">
	<circle fill="none" stroke="#000000" stroke-width="20" stroke-miterlimit="10" cx="250" cy="250" r="234.5"/>
</g>
<g id="Layer_2">
	<g>
		<path d="M96.8,336.9V198.2c-9.4,0-17.8,0-25.2,0.1c-7.4,0-12.1,0.1-14,0.1v-25.7c4.4,0,19.2,0,44.3-0.1c25.2,0,42-0.1,50.4-0.1
			c9.3,0,16.2,0.7,20.7,2l-7.4,25.2c-4.3-1-8.9-1.5-13.9-1.5h-22.7v138.7H96.8z"/>
		<path d="M228.2,336.9h-31V173.2c4.7,0,10.5-0.2,17.2-0.5c6.8-0.3,13-0.5,18.6-0.5c8,0,14.7,0.2,20,0.6c5.3,0.4,10.8,1.2,16.6,2.4
			c5.7,1.2,10.8,3.2,15.1,5.8c4.3,2.6,8.2,6.1,11.7,10.3c6,7.3,8.9,17.6,8.9,31c0,20.6-4.5,35.8-13.4,45.5
			c-8.9,9.8-23.8,14.6-44.6,14.6c-6,0-12.4-0.1-19.1-0.4V336.9z M272.8,224.1c0-4.1-0.4-7.6-1.1-10.7c-0.7-3.1-1.8-5.5-3.2-7.3
			c-1.4-1.8-2.8-3.3-4.2-4.4c-1.4-1.1-3.2-1.9-5.4-2.4c-2.2-0.5-4-0.7-5.4-0.9c-1.4-0.1-3.2-0.2-5.5-0.2H247
			c-2.9,0-6.4,0.1-10.7,0.3c-4.2,0.2-6.9,0.3-7.9,0.3v8.8l-0.2,48.6c6,0.2,10.3,0.2,12.9,0.2c3.3,0,6.3-0.2,8.9-0.6
			c2.6-0.4,5.5-1.2,8.4-2.6s5.5-3.2,7.4-5.4s3.6-5.4,5-9.5C272.2,234.5,272.8,229.7,272.8,224.1z"/>
		<path d="M335.2,337.3V172.5h31.5v138.7h53.1c5.1-0.2,9.8-1.1,14.1-2.6l8.9,24.4c-8.3,2.8-15.9,4.2-22.8,4.2H335.2z"/>
	</g>
	<g>
	</g>
	<g>
	</g>
	<g>
	</g>
	<g>
	</g>
	<g>
	</g>
	<g>
	</g>
	<g>
	</g>
	<g>
	</g>
	<g>
	</g>
	<g>
	</g>
	<g>
	</g>
	<g>
	</g>
	<g>
	</g>
	<g>
	</g>
	<g>
	</g>
</g>
</svg>
